<svg width="405" height="527" viewBox="0 0 405 527" fill="none" xmlns="http://www.w3.org/2000/svg">
<g clip-path="url(#clip0_2619_8758)">
<g style="mix-blend-mode:multiply">
<path d="M54.3867 501.26C55.271 497.765 52.9536 494.269 50.372 491.749C47.7904 489.229 44.7108 486.973 43.3488 483.63C41.1534 478.214 44.0196 471.171 40.2996 466.66C38.1144 464.007 34.2115 463.133 32.2702 460.298C31.2538 458.815 30.9082 456.975 30.5017 455.217C28.4283 446.255 23.885 437.882 17.5123 431.246C17.1159 439.233 18.9251 447.332 22.6857 454.394C24.2001 457.23 26.0499 460.004 26.5683 463.174C27.4017 468.326 24.5558 473.661 25.8467 478.722C27.3306 484.504 33.8659 488.355 34.2013 494.31C34.4859 499.35 30.1155 503.801 30.4712 508.841C30.6237 510.985 31.6299 512.977 32.7479 514.806C36.6813 521.269 42.4442 525.699 51.1241 525.506L61.7657 525.821L54.3867 501.26Z" fill="#FFBD1A"/>
<path d="M63.9407 526.096C63.9407 526.096 64.9571 526.329 66.8679 526.014C67.8233 525.872 68.9922 525.608 70.3236 525.12C71.6449 524.632 73.1492 523.931 74.5823 522.762C75.2734 522.153 75.9544 521.401 76.3203 520.415C76.6862 519.429 76.737 518.342 76.8082 517.235C76.859 516.127 76.8488 514.968 77.0318 513.79C77.2046 512.621 77.6619 511.463 78.3124 510.365C79.5524 508.16 81.6258 506.057 82.2763 503.059C82.9878 500.112 82.4491 496.931 81.9308 493.741C81.4226 490.55 80.9245 487.075 82.1239 483.752C83.2419 480.419 85.5592 477.401 86.7078 473.651C87.8461 469.861 87.2871 465.786 87.5107 461.772C87.6123 459.75 87.9884 457.738 88.8625 455.858C89.7163 453.968 90.8953 452.189 91.8202 450.198C93.6903 446.184 93.9952 441.641 94.4831 437.18C94.727 434.935 94.9608 432.669 95.2047 430.382C95.4487 428.086 95.6316 425.789 96.3431 423.574C96.9834 421.338 97.9185 419.184 98.8536 416.979C99.3109 415.871 99.7886 414.764 100.073 413.534C100.276 412.284 100.327 411.105 100.398 409.876C100.5 407.437 100.388 404.968 100.073 402.519C99.7683 400.07 99.3109 397.631 99.0365 395.182C99.0162 395.04 99.006 394.887 98.9857 394.755L98.9247 394.267L98.4877 394.491C96.2211 395.639 94.2798 397.357 92.7857 399.358C91.2713 401.35 90.1736 403.586 89.2995 405.862C87.5514 410.445 86.9314 415.231 86.0674 419.804C85.2238 424.377 84.0956 428.878 81.7681 432.689C80.6094 434.589 79.217 436.327 77.9872 438.176C76.7675 440.016 75.6901 442.038 75.3852 444.253C74.7856 448.755 77.2859 452.697 76.7878 456.681C76.6151 458.662 75.8426 460.512 74.877 462.209C73.9216 463.916 72.7935 465.491 71.7262 467.086C70.659 468.672 69.6427 470.287 68.9007 472.005C68.1384 473.722 67.7319 475.551 67.6201 477.34C67.3761 480.927 67.9046 484.331 67.6607 487.542C67.4676 490.763 66.3496 493.68 65.0893 496.301C63.8188 498.923 62.3958 501.301 61.2168 503.597C60.6172 504.746 60.0683 505.874 59.6211 506.991C59.1434 508.119 58.9198 509.268 58.7064 510.355C58.3709 512.56 58.4116 514.613 58.6657 516.422C59.1536 520.059 60.5257 522.681 61.7555 524.145C62.0401 524.541 62.3653 524.815 62.6194 525.069C62.8735 525.333 63.1175 525.516 63.3207 525.659C63.7273 525.963 63.9407 526.096 63.9407 526.096C63.9916 526.045 63.0666 525.557 61.8673 524.073C60.6883 522.6 59.3772 519.999 58.9401 516.401C58.7165 514.613 58.6962 512.58 59.0418 510.416C59.2552 509.349 59.489 508.221 59.9667 507.124C60.4139 506.026 60.9729 504.908 61.5726 503.77C62.7719 501.494 64.205 499.126 65.4958 496.484C66.7866 493.852 67.9453 490.875 68.1587 487.572C68.423 484.29 67.9046 480.876 68.1587 477.38C68.2705 475.632 68.6771 473.885 69.4089 472.218C70.1407 470.552 71.1367 468.966 72.2039 467.391C73.2712 465.816 74.4095 464.221 75.3954 462.483C76.3813 460.756 77.2046 458.825 77.3977 456.721C77.8855 452.474 75.4056 448.511 76.0154 444.324C76.3101 442.251 77.3265 440.32 78.536 438.512C79.7354 436.693 81.1481 434.955 82.3373 433.004C84.736 429.082 85.8743 424.499 86.7382 419.905C87.6123 415.302 88.2323 410.557 89.95 406.075C90.8038 403.85 91.8812 401.665 93.3447 399.745C94.7779 397.814 96.6378 396.178 98.8027 395.08L98.3149 394.816C98.3352 394.948 98.3454 395.101 98.3657 395.243C98.6503 397.733 99.1077 400.161 99.4024 402.59C99.7175 405.008 99.8293 407.437 99.7277 409.835C99.6667 411.024 99.5955 412.264 99.4227 413.382C99.1686 414.499 98.7011 415.607 98.2437 416.705C97.3188 418.899 96.3736 421.094 95.7129 423.371C94.9913 425.637 94.788 428.015 94.5542 430.291C94.3103 432.577 94.0766 434.853 93.8428 437.099C93.3549 441.57 93.05 446.041 91.251 449.923C90.3667 451.854 89.1776 453.642 88.3035 455.593C87.3989 457.534 87.0025 459.668 86.911 461.721C86.6976 465.826 87.2566 469.84 86.1691 473.478C85.0917 477.106 82.7845 480.134 81.6258 483.569C80.3858 487.044 80.9347 490.631 81.4531 493.812C81.9816 497.013 82.5203 500.122 81.8494 502.957C81.2498 505.813 79.2373 507.896 77.977 510.172C77.3164 511.3 76.8488 512.519 76.676 513.739C76.4931 514.948 76.5134 516.117 76.4728 517.224C76.4219 518.322 76.3711 519.399 76.0357 520.314C75.7105 521.238 75.06 521.96 74.3993 522.559C73.0171 523.718 71.5433 524.429 70.2423 524.937C68.9414 525.435 67.7827 525.72 66.8374 525.882C65.8922 526.055 65.1604 526.085 64.6725 526.106C64.1948 526.085 63.9407 526.096 63.9407 526.096Z" fill="#FFBD1A"/>
<path d="M96.8309 400.619C96.8208 400.619 96.7903 400.73 96.7293 400.944C96.6683 401.198 96.5972 401.513 96.4955 401.899C96.2923 402.742 96.0483 404.002 95.6519 405.588C95.2454 407.163 94.29 408.951 93.4769 411.156C92.6333 413.341 91.7795 415.871 90.9867 418.717C90.1939 421.552 89.4926 424.712 88.7609 428.086C88.0087 431.459 87.2566 435.077 85.4169 438.491C84.553 440.229 83.5875 441.977 82.815 443.897C82.0222 445.818 81.6055 447.911 81.3209 450.005C80.833 454.222 80.0809 458.5 79.1052 462.879C77.0216 471.608 75.0397 479.921 73.2305 487.491C71.3807 495.031 69.7138 501.829 68.301 507.561C66.9289 513.241 65.821 517.854 65.0384 521.106C64.6725 522.671 64.3879 523.901 64.1847 524.795C64.1034 525.181 64.0322 525.506 63.9814 525.76C63.9407 525.974 63.9204 526.096 63.9306 526.096C63.9407 526.096 63.9814 525.994 64.0424 525.781C64.1135 525.526 64.205 525.222 64.3168 524.835C64.5506 523.941 64.886 522.722 65.2925 521.177C66.126 517.936 67.3151 513.343 68.7686 507.682C70.2118 501.961 71.9295 495.173 73.8403 487.644C75.6698 480.073 77.6721 471.761 79.776 463.032C80.7619 458.652 81.514 454.293 81.9917 450.096C82.2763 448.013 82.6727 445.991 83.435 444.131C84.1769 442.261 85.1324 440.513 85.9963 438.766C87.8461 435.28 88.6084 431.561 89.33 428.197C90.0415 424.814 90.7123 421.663 91.4746 418.828C92.2267 415.993 93.0398 413.463 93.8529 411.278C94.6254 409.083 95.5503 407.274 95.9264 405.649C96.2821 404.033 96.4854 402.773 96.648 401.919C96.709 401.523 96.77 401.208 96.8106 400.944C96.8309 400.73 96.8513 400.619 96.8309 400.619Z" fill="#FFBD1A"/>
<path d="M65.8109 526.126C72.7324 521.96 74.6534 509.41 71.7161 501.89C68.7787 494.361 63.6663 487.501 62.8329 479.463C62.1925 473.285 64.1847 466.924 62.7109 460.888C60.7188 452.748 52.7198 446.468 52.7605 438.085C52.7808 433.38 55.4336 428.939 55.1998 424.245C54.9051 418.483 50.4533 413.93 47.6887 408.87C43.4504 401.127 43.1252 391.93 41.6412 383.232C40.1573 374.523 36.7829 365.215 29.0381 360.978C27.9404 368.386 26.0194 373.456 26.6902 383.476C26.9342 387.073 31.1521 393.942 31.762 401.828C32.1279 406.543 32.3921 411.258 32.7072 415.983C33.0121 420.576 33.3374 425.251 35.0042 429.529C36.2849 432.811 38.3278 435.788 39.2832 439.182C41.0822 445.564 38.8055 452.504 40.2691 458.977C41.5091 464.455 45.3307 469.159 46.1438 474.718C47.2822 482.532 42.2612 490.682 44.8937 498.13C46.2048 501.829 49.2641 504.776 50.1484 508.597C50.8395 511.554 50.1179 514.704 50.748 517.682C51.7543 522.478 60.9322 526.146 65.821 525.821" fill="#FFBD1A"/>
<path d="M30.9895 368.294C30.9794 368.294 30.9895 368.436 31.02 368.711C31.0607 369.026 31.1115 369.422 31.1826 369.93C31.3453 370.997 31.5384 372.562 31.9043 374.594C32.3007 376.637 33.3679 378.923 34.2216 381.687C35.1262 384.441 36.0206 387.622 36.8236 391.188C37.6367 394.745 38.3177 398.688 39.0393 402.935C39.7813 407.142 40.5435 411.796 42.678 416.207C43.6638 418.422 44.7717 420.637 45.6051 423.005C46.4589 425.362 46.8655 427.893 47.1094 430.504C47.4956 435.748 48.2274 441.184 49.2438 446.671C51.4392 457.626 53.5228 468.052 55.4234 477.543C57.4257 486.993 59.2247 495.519 60.7391 502.683C62.2739 509.806 63.5138 515.578 64.3778 519.623C64.8148 521.584 65.1604 523.128 65.4043 524.226C65.5263 524.724 65.6178 525.11 65.6889 525.415C65.7601 525.679 65.8007 525.821 65.8109 525.821C65.821 525.821 65.8007 525.679 65.7601 525.405C65.7092 525.1 65.6381 524.703 65.5466 524.195C65.3332 523.098 65.0283 521.543 64.6522 519.572C63.8289 515.517 62.6601 509.725 61.227 502.591C59.7532 495.407 58.005 486.881 56.0536 477.421C54.1733 467.93 52.0998 457.504 49.9349 446.56C48.9186 441.072 48.1969 435.697 47.8005 430.443C47.5464 427.821 47.1297 425.21 46.2455 422.791C45.3815 420.373 44.2635 418.158 43.2776 415.953C41.1635 411.614 40.4013 407.061 39.6288 402.844C38.8868 398.607 38.1652 394.654 37.3216 391.087C36.4882 387.52 35.5531 384.329 34.6079 381.575C33.7134 378.801 32.6157 376.535 32.1889 374.544C31.7823 372.552 31.5485 370.967 31.3351 369.92C31.2436 369.422 31.1623 369.026 31.1013 368.721C31.0403 368.436 30.9997 368.294 30.9895 368.294Z" fill="#FFBD1A"/>
</g>
<path d="M458.257 526.177C458.257 526.319 355.664 526.441 229.144 526.441C102.574 526.441 0 526.329 0 526.177C0 526.024 102.574 525.913 229.144 525.913C355.664 525.913 458.257 526.035 458.257 526.177Z" fill="#263238"/>
<path d="M388.035 346.985C387.883 345.522 386.643 344.404 385.169 344.404L363.469 344.424C361.66 344.424 360.308 346.081 360.654 347.849C360.928 349.221 362.138 350.196 363.541 350.155H385.169C386.877 350.166 388.218 348.682 388.035 346.985Z" fill="#263238"/>
<path d="M401.686 412.782L375.473 344.404L370.503 346.904L395.902 414.652L401.686 412.782Z" fill="#263238"/>
<path d="M423.538 518.444L462.232 503.079C463.675 502.51 464.376 500.874 463.807 499.431L425.296 402.509C422.267 394.877 413.628 391.158 405.995 394.186L389.702 400.659C382.079 403.688 378.349 412.325 381.378 419.956L419.889 516.879C420.458 518.312 422.095 519.013 423.538 518.444Z" fill="#E8505B"/>
<path d="M419.797 517.357C419.797 517.357 419.736 517.153 419.594 516.767C419.442 516.361 419.228 515.781 418.954 515.05C418.364 513.515 417.521 511.3 416.433 508.455C414.207 502.714 411.006 494.462 407.052 484.26C403.068 474.047 398.321 461.894 393.067 448.399C390.424 441.652 387.659 434.569 384.783 427.232C384.061 425.393 383.34 423.543 382.608 421.684C381.835 419.865 381.581 417.863 381.795 415.892C382.262 411.939 385.017 408.291 388.838 406.817C392.65 405.303 397.152 406.096 400.181 408.677C401.675 409.978 402.854 411.614 403.525 413.473C404.257 415.343 404.989 417.192 405.7 419.022C408.587 426.358 411.361 433.441 414.014 440.178C419.32 453.653 424.107 465.786 428.122 475.988C432.157 486.16 435.419 494.391 437.686 500.112C438.824 502.937 439.708 505.142 440.318 506.656C440.613 507.388 440.847 507.947 441.02 508.353C441.182 508.739 441.274 508.922 441.274 508.922C441.274 508.922 441.213 508.719 441.07 508.333C440.918 507.926 440.704 507.347 440.43 506.616C439.841 505.081 438.997 502.866 437.909 500.031C435.684 494.3 432.482 486.038 428.528 475.836C424.544 465.623 419.797 453.47 414.533 439.975C411.89 433.228 409.125 426.145 406.249 418.808C405.527 416.969 404.806 415.119 404.074 413.25C403.383 411.329 402.143 409.571 400.567 408.209C397.376 405.486 392.63 404.643 388.615 406.248C384.59 407.803 381.683 411.654 381.195 415.81C380.961 417.883 381.246 420.017 382.049 421.887C382.781 423.757 383.513 425.606 384.224 427.435C387.111 434.772 389.885 441.845 392.538 448.592C397.844 462.067 402.631 474.2 406.645 484.402C410.68 494.574 413.943 502.805 416.21 508.526C417.348 511.351 418.232 513.556 418.842 515.07C419.137 515.802 419.371 516.361 419.543 516.767C419.706 517.163 419.797 517.357 419.797 517.357Z" fill="#263238"/>
<path d="M383.055 344.404L378.522 335.462C378.024 334.456 377.17 333.673 376.144 333.246L369.019 330.289L349.85 304.285L348.061 324.192L360.288 336.793C360.288 336.793 367.942 352.909 374.192 352.086C374.192 352.086 373.979 349.719 372.942 347.92C370.909 344.414 373.074 344.414 373.359 344.424L378.553 344.434L383.055 344.404Z" fill="#8D5524"/>
<path d="M351.75 330.655C352.33 331.519 357.076 337.941 357.076 337.941L370.503 328.176L365.624 323.41L351.75 330.655Z" fill="#E8505B"/>
<path d="M372.932 347.91C372.932 347.91 376.418 349.891 376.855 351.588V352.584L372.668 351.974L372.932 347.91Z" fill="#8D5524"/>
<path d="M377.607 349.83C377.038 349.292 376.439 348.733 376.205 347.981C375.971 347.229 376.256 346.264 376.998 346.009C377.719 345.766 378.461 346.294 379.03 346.802C379.752 347.452 380.433 348.133 381.073 348.855C381.602 349.454 382.151 350.206 381.957 350.979C381.805 351.598 381.175 352.035 380.524 352.076C379.884 352.117 379.254 351.812 378.786 351.375C378.319 350.938 377.994 350.359 377.719 349.779" fill="#8D5524"/>
<path d="M381.165 349.525C380.595 348.987 379.996 348.428 379.762 347.676C379.528 346.924 379.813 345.959 380.555 345.705C381.276 345.461 382.018 345.989 382.588 346.497C383.309 347.148 383.99 347.828 384.63 348.55C385.159 349.149 385.708 349.901 385.515 350.674C385.362 351.294 384.732 351.731 384.082 351.771C383.441 351.812 382.811 351.507 382.344 351.07C381.876 350.633 381.551 350.054 381.276 349.475" fill="#8D5524"/>
<path d="M370.503 334.252C370.493 334.13 371.407 334.181 372.444 335.086C372.942 335.594 373.257 336.295 373.664 337.057C374.04 337.829 374.426 338.774 374.355 339.841C374.274 340.929 373.684 341.772 373.257 342.483C372.81 343.174 372.576 343.896 372.424 344.495C372.109 345.725 372.353 346.497 372.281 346.518C372.22 346.558 371.824 345.745 372.058 344.414C372.17 343.764 372.383 342.981 372.84 342.229C373.257 341.488 373.765 340.705 373.826 339.791C373.897 338.876 373.562 338.002 373.227 337.25C372.861 336.498 372.556 335.766 372.18 335.319C371.773 334.893 371.306 334.618 371.011 334.456C370.686 334.303 370.503 334.293 370.503 334.252Z" fill="#B36B2C"/>
<path d="M225.851 242.543L211.611 288.077L253.517 331.854L291.926 321.875L225.851 242.543Z" fill="#F5F5F5"/>
<path d="M225.851 242.543C225.851 242.543 225.963 242.665 226.176 242.919C226.4 243.193 226.725 243.569 227.142 244.057C228.006 245.083 229.266 246.577 230.882 248.508C234.155 252.41 238.901 258.07 244.817 265.122C256.698 279.328 273.275 299.154 292.14 321.713L292.404 322.028L292.007 322.129C285.035 323.938 277.768 325.828 270.358 327.759C264.656 329.243 259.056 330.696 253.598 332.108L253.446 332.149L253.344 332.037C237.55 315.504 223.157 300.454 211.469 288.22L211.388 288.128L211.428 288.016C215.85 274.064 219.458 262.673 221.968 254.747C223.218 250.835 224.184 247.776 224.855 245.673C225.18 244.656 225.434 243.874 225.607 243.325C225.759 242.797 225.851 242.543 225.851 242.543C225.363 244.128 220.342 260.427 211.804 288.138L211.754 287.935C223.462 300.139 237.875 315.169 253.7 331.671L253.446 331.6C258.894 330.177 264.504 328.724 270.206 327.241C277.626 325.31 284.883 323.43 291.865 321.621L291.733 322.038C273.011 299.479 256.566 279.653 244.786 265.447C238.901 258.334 234.175 252.623 230.913 248.68C229.296 246.719 228.036 245.195 227.172 244.148C226.755 243.64 226.43 243.244 226.196 242.959C225.963 242.695 225.851 242.543 225.851 242.543Z" fill="#263238"/>
<path d="M227.152 272.581C229.144 269.146 234.348 268.12 237.499 270.548C240.121 272.571 241.32 276.412 244.471 277.428C246.748 278.16 249.258 277.093 251.616 277.519C254.371 278.017 256.424 280.517 257.227 283.21C258.03 285.893 257.806 288.768 257.582 291.563L243.943 291.756L227.152 272.581Z" fill="#E0E0E0"/>
<path d="M201.956 246.699L290.269 337.687L254.279 334.039L203.938 280.903L201.956 246.699Z" fill="#F5F5F5"/>
<path d="M201.956 246.699C202.037 248.03 202.779 259.736 204.11 280.893L204.06 280.781C216.927 294.337 234.531 312.872 254.462 333.866L254.3 333.785C263.193 334.689 272.442 335.614 281.905 336.579C284.771 336.874 287.627 337.159 290.29 337.433L290.076 337.88C240.965 287.061 203.907 248.711 201.956 246.699C203.907 248.701 241.137 286.899 290.463 337.514L290.971 338.032L290.249 337.961C287.586 337.697 284.74 337.402 281.864 337.108C272.391 336.142 263.152 335.208 254.259 334.303L254.167 334.293L254.096 334.222C234.206 313.177 216.653 294.611 203.816 281.025L203.775 280.974V280.913C202.647 259.736 202.027 248.03 201.956 246.699Z" fill="#263238"/>
<path d="M236.523 282.865C233.789 286.004 234.195 291.014 236.523 294.459C238.861 297.904 242.692 300.018 246.575 301.511C249.716 302.721 253.588 303.483 256.18 301.349" fill="#E0E0E0"/>
<path d="M231.919 277.916C232.081 278.678 231.126 279.237 230.353 279.166C229.581 279.094 228.87 278.668 228.087 278.627C225.963 278.505 224.804 281.025 223.076 282.255C221.054 283.688 217.872 283.078 216.531 280.984C215.372 279.186 215.402 276.524 213.573 275.406C212.557 274.786 211.276 274.877 210.117 275.091C208.959 275.304 207.769 275.65 206.601 275.457C205.432 275.274 204.263 274.359 204.263 273.18L203.633 272.195L202.118 247.085L231.919 277.916Z" fill="#E0E0E0"/>
<path d="M274.963 335.848C276.955 336.193 278.866 335.177 279.17 333.175C279.475 331.173 277.9 329.08 275.898 328.816C274.099 328.582 272.239 329.619 270.501 329.08C268.529 328.47 267.716 326.174 267.218 324.182C266.72 322.18 266.029 319.894 264.118 319.121C260.947 317.841 257.613 321.896 254.32 321.001C251.87 320.341 250.925 317.394 249.004 315.738C247.469 314.406 245.213 313.959 243.282 314.61C241.351 315.26 240.223 316.347 239.806 318.339L254.381 333.714L274.963 335.848Z" fill="#E0E0E0"/>
<path d="M250.823 489.635L247.195 510.548C247.195 510.548 224.713 513.881 223.666 517.682L263.975 526.177L270.968 493.822L250.823 489.635Z" fill="#E8505B"/>
<g opacity="0.6">
<path opacity="0.6" d="M260.022 511.432C260.754 511.808 261.109 512.804 260.764 513.546C260.418 514.298 259.412 514.664 258.67 514.298C257.928 513.932 257.471 512.753 257.898 512.052C258.324 511.341 259.534 510.975 260.164 511.513" fill="white"/>
</g>
<path opacity="0.6" d="M263.975 526.177L264.677 522.945L225.688 515.974C225.688 515.974 223.727 516.381 223.666 517.682L263.975 526.177Z" fill="white"/>
<path d="M246.585 510.213C246.555 510.416 247.52 510.711 248.354 511.544C249.207 512.357 249.533 513.312 249.726 513.282C249.919 513.282 249.868 512.042 248.842 511.046C247.815 510.04 246.575 510.02 246.585 510.213Z" fill="#263238"/>
<path d="M241.991 511.066C241.91 511.249 242.692 511.757 243.18 512.733C243.699 513.688 243.678 514.623 243.882 514.664C244.065 514.735 244.441 513.607 243.8 512.408C243.17 511.209 242.032 510.883 241.991 511.066Z" fill="#263238"/>
<path d="M238.515 515.619C238.688 515.7 239.166 514.775 238.891 513.586C238.617 512.398 237.783 511.778 237.661 511.93C237.519 512.072 237.997 512.774 238.21 513.749C238.444 514.725 238.332 515.558 238.515 515.619Z" fill="#263238"/>
<path d="M247.937 505.538C247.978 505.731 248.943 505.65 250.041 505.965C251.149 506.25 251.931 506.809 252.074 506.666C252.216 506.544 251.525 505.64 250.234 505.294C248.933 504.929 247.876 505.366 247.937 505.538Z" fill="#263238"/>
<path opacity="0.3" d="M250.112 493.781L249.461 497.511L269.301 501.504L270.033 498.171L250.112 493.781Z" fill="black"/>
<path d="M248.75 501.331C248.73 501.413 249.482 501.697 250.773 501.748C251.413 501.768 252.185 501.718 253.019 501.545C253.436 501.453 253.873 501.331 254.31 501.169C254.523 501.088 254.767 501.016 255.021 500.823C255.285 500.661 255.519 500.173 255.336 499.797C255.194 499.441 254.859 499.238 254.564 499.167C254.269 499.096 254.015 499.106 253.781 499.116C253.314 499.126 252.856 499.187 252.44 499.279C251.596 499.462 250.874 499.777 250.325 500.112C249.207 500.783 248.73 501.453 248.791 501.504C248.862 501.585 249.451 501.067 250.549 500.549C251.098 500.295 251.779 500.051 252.561 499.919C252.948 499.848 253.364 499.807 253.791 499.807C254.239 499.787 254.604 499.858 254.676 500.071C254.696 500.153 254.696 500.183 254.584 500.285C254.472 500.376 254.269 500.458 254.066 500.539C253.659 500.691 253.263 500.823 252.866 500.925C252.094 501.128 251.362 501.22 250.752 501.26C249.543 501.331 248.77 501.22 248.75 501.331Z" fill="#263238"/>
<path d="M248.943 501.667C249.004 501.707 249.543 501.088 249.888 499.828C250.051 499.208 250.153 498.425 250.081 497.561C250.041 497.135 249.96 496.677 249.827 496.23C249.675 495.783 249.502 495.184 248.75 494.94C248.354 494.838 247.957 495.082 247.784 495.326C247.591 495.57 247.52 495.803 247.419 496.027C247.246 496.484 247.154 496.942 247.134 497.389C247.083 498.273 247.276 499.065 247.561 499.655C248.13 500.864 248.902 501.27 248.933 501.209C249.024 501.128 248.415 500.6 248.018 499.472C247.825 498.913 247.703 498.202 247.774 497.439C247.815 497.053 247.906 496.667 248.059 496.281C248.211 495.864 248.445 495.549 248.598 495.631C248.801 495.671 249.075 496.068 249.167 496.444C249.299 496.85 249.38 497.257 249.441 497.643C249.543 498.425 249.502 499.147 249.411 499.736C249.207 500.925 248.841 501.616 248.943 501.667Z" fill="#263238"/>
<path d="M383.279 490.916L374.558 479.534L374.101 478.945L359.251 489.991L373.013 505.091L372.515 520.374C364.852 522.356 363.703 526.177 363.703 526.177L379.62 526.157L394.083 498.303L383.279 490.916Z" fill="#E8505B"/>
<path opacity="0.6" d="M394.073 498.313L379.62 526.167L363.693 526.177L365.492 523.789L378.431 523.057L391.776 496.738L394.073 498.313Z" fill="white"/>
<path d="M372.607 513.373C372.729 513.536 373.644 513.017 374.873 513.048C376.103 513.048 377.008 513.597 377.13 513.434C377.282 513.312 376.378 512.357 374.883 512.347C373.379 512.316 372.454 513.241 372.607 513.373Z" fill="#263238"/>
<path d="M372.861 509.583C373.023 509.694 373.725 508.76 374.995 508.506C376.266 508.241 377.282 508.841 377.384 508.668C377.435 508.597 377.252 508.333 376.804 508.089C376.367 507.845 375.646 507.662 374.853 507.815C374.07 507.977 373.471 508.424 373.156 508.821C372.841 509.217 372.78 509.532 372.861 509.583Z" fill="#263238"/>
<path d="M372.749 504.705C372.922 504.797 373.46 503.872 374.578 503.486C375.686 503.089 376.682 503.465 376.764 503.282C376.804 503.201 376.601 502.978 376.164 502.815C375.727 502.652 375.046 502.581 374.345 502.825C373.643 503.069 373.156 503.557 372.922 503.963C372.688 504.37 372.668 504.675 372.749 504.705Z" fill="#263238"/>
<path d="M368.49 500.935C368.684 501.006 369.131 500.092 370.117 499.451C371.082 498.781 372.099 498.72 372.109 498.517C372.16 498.334 370.93 498.059 369.73 498.872C368.521 499.675 368.297 500.915 368.49 500.935Z" fill="#263238"/>
<path d="M366.407 497.673C366.488 497.724 367.017 497.084 367.799 496.007C368.246 495.377 368.684 494.747 369.141 494.096C369.375 493.72 369.69 493.395 369.883 492.806C369.964 492.511 369.964 492.155 369.781 491.84C369.619 491.505 369.171 491.292 368.816 491.342C368.125 491.444 367.738 491.8 367.332 492.115C366.946 492.45 366.62 492.826 366.366 493.222C365.858 494.005 365.614 494.828 365.533 495.519C365.38 496.931 365.838 497.724 365.899 497.694C366.021 497.663 365.756 496.85 366.021 495.6C366.153 494.98 366.417 494.259 366.895 493.588C367.139 493.253 367.423 492.928 367.769 492.643C368.104 492.369 368.541 492.074 368.866 492.044C369.019 492.033 369.1 492.074 369.171 492.186C369.243 492.308 369.263 492.47 369.212 492.633C369.131 492.968 368.816 493.365 368.602 493.741C368.186 494.421 367.779 495.082 367.383 495.742C366.702 496.881 366.326 497.612 366.407 497.673Z" fill="#263238"/>
<path d="M365.838 498.141C365.909 498.131 365.848 497.297 364.984 496.342C364.14 495.438 362.301 494.472 360.268 495.488C360.125 495.61 360.004 495.844 360.024 496.058C360.034 496.281 360.125 496.444 360.217 496.566C360.41 496.809 360.613 496.931 360.786 497.064C361.152 497.318 361.538 497.531 361.914 497.704C362.666 498.049 363.398 498.222 364.008 498.283C365.248 498.415 365.99 498.171 365.98 498.1C365.97 497.988 365.228 498.039 364.089 497.795C363.53 497.673 362.87 497.46 362.199 497.114C361.863 496.942 361.528 496.738 361.193 496.494C361.03 496.373 360.857 496.251 360.776 496.139C360.695 495.997 360.715 496.037 360.745 495.997C360.796 495.936 361.01 495.875 361.203 495.824C361.396 495.773 361.599 495.743 361.792 495.732C362.189 495.702 362.565 495.732 362.921 495.814C363.632 495.966 364.211 496.312 364.638 496.688C365.492 497.45 365.736 498.191 365.838 498.141Z" fill="#263238"/>
<path opacity="0.6" d="M381.378 497.836C381.378 498.882 382.222 499.726 383.269 499.726C384.316 499.726 385.159 498.882 385.159 497.836C385.159 496.789 384.316 495.946 383.269 495.946C382.222 495.956 381.378 496.799 381.378 497.836Z" fill="white"/>
<path opacity="0.3" d="M360.645 491.505L363.694 494.859L376.551 482.126L374.762 479.799L360.645 491.505Z" fill="black"/>
<path d="M321.066 226.477C329.492 223.53 338.781 223.113 347.441 225.278C351.314 226.243 355.247 227.859 357.737 230.979C360.674 234.678 361.04 239.718 361.498 244.423C362.412 253.985 364.181 263.466 366.763 272.723C368.917 280.426 371.641 288.006 372.81 295.922C373.969 303.838 373.44 312.303 369.405 319.213C363.185 329.862 349.962 334.567 337.633 334.781C331.138 334.892 324.501 333.937 318.748 330.94C312.996 327.932 308.209 322.678 306.806 316.337" fill="#E8505B"/>
<g opacity="0.5">
<g opacity="0.5">
<path opacity="0.5" d="M321.066 226.477C329.492 223.53 338.781 223.113 347.441 225.278C351.314 226.243 355.247 227.859 357.737 230.979C360.674 234.678 361.04 239.718 361.498 244.423C362.412 253.985 364.181 263.466 366.763 272.723C368.917 280.426 371.641 288.006 372.81 295.922C373.969 303.838 373.44 312.303 369.405 319.213C363.185 329.862 349.962 334.567 337.633 334.781C331.138 334.892 324.501 333.937 318.748 330.94C312.996 327.932 308.209 322.678 306.806 316.337" fill="black"/>
</g>
</g>
<path d="M338.009 236.232C337.928 236.324 339.717 237.441 341.536 240.185C342.461 241.547 343.365 243.274 344.29 245.256C345.225 247.227 346.191 249.453 347.573 251.617C348.955 253.771 350.704 255.6 352.665 256.718C354.617 257.867 356.772 258.141 358.438 257.846C360.126 257.572 361.366 256.83 362.047 256.19C362.402 255.875 362.626 255.58 362.758 255.377C362.89 255.174 362.951 255.052 362.941 255.042C362.89 255.001 362.595 255.428 361.884 255.997C361.183 256.556 359.983 257.196 358.377 257.389C356.782 257.602 354.81 257.308 352.97 256.2C351.131 255.123 349.464 253.365 348.122 251.272C346.78 249.168 345.805 246.963 344.839 245.002C343.884 243.03 342.918 241.283 341.922 239.931C340.936 238.569 339.96 237.614 339.229 237.025C338.497 236.435 338.029 236.202 338.009 236.232Z" fill="#E0E0E0"/>
<path d="M355.877 331.417C355.897 331.417 355.908 331.143 355.908 330.625C355.897 330.035 355.887 329.283 355.867 328.348C355.826 326.367 355.714 323.511 355.562 319.975C355.257 312.913 354.698 303.157 353.854 292.396C353.011 281.635 352.035 271.91 351.232 264.888C350.836 261.372 350.49 258.537 350.226 256.576C350.094 255.651 349.992 254.91 349.911 254.32C349.83 253.802 349.779 253.538 349.758 253.538C349.738 253.538 349.748 253.812 349.779 254.33C349.83 254.92 349.89 255.672 349.972 256.596C350.165 258.649 350.439 261.474 350.775 264.929C351.456 271.961 352.36 281.686 353.204 292.437C354.048 303.188 354.678 312.933 355.105 319.985C355.318 323.45 355.491 326.286 355.613 328.338C355.684 329.273 355.735 330.025 355.775 330.614C355.816 331.143 355.847 331.417 355.877 331.417Z" fill="#E0E0E0"/>
<path d="M353.336 288.209C353.346 288.382 357.239 288.342 361.986 287.742C366.742 287.153 370.523 286.248 370.493 286.086C370.452 285.903 366.641 286.512 361.904 287.092C357.178 287.691 353.326 288.027 353.336 288.209Z" fill="#E0E0E0"/>
<path d="M356.487 288.118C356.406 288.098 356.152 288.799 355.958 289.967C355.857 290.557 355.776 291.258 355.745 292.051C355.735 292.447 355.745 292.914 355.958 293.382C356.172 293.859 356.67 294.256 357.28 294.266C357.585 294.276 357.92 294.124 358.113 293.88C358.316 293.636 358.388 293.351 358.408 293.107C358.449 292.599 358.316 292.183 358.225 291.807C358.032 291.034 357.778 290.364 357.534 289.825C357.036 288.738 356.568 288.159 356.497 288.199C356.416 288.25 356.731 288.9 357.097 289.998C357.28 290.547 357.483 291.207 357.635 291.949C357.707 292.325 357.798 292.711 357.768 293.057C357.737 293.402 357.554 293.615 357.28 293.615C356.589 293.595 356.314 292.792 356.345 292.061C356.345 291.299 356.375 290.608 356.406 290.028C356.487 288.86 356.578 288.138 356.487 288.118Z" fill="#E0E0E0"/>
<path d="M312.681 230.176L353.509 225.41C358.855 224.79 362.687 219.943 362.067 214.598L361.183 207.027C360.563 201.682 355.714 197.851 350.368 198.471L309.54 203.237C304.194 203.857 300.362 208.704 300.982 214.049L301.866 221.62C302.486 226.965 307.335 230.796 312.681 230.176Z" fill="#455A64"/>
<path d="M349.687 199.111C349.697 199.091 349.565 199.03 349.301 198.939C349.037 198.857 348.63 198.776 348.102 198.756C347.055 198.725 345.449 199.051 343.924 200.209C342.44 201.327 340.713 202.922 339.717 205.259C338.68 207.556 338.344 210.371 338.558 213.216C338.721 216.102 339.767 218.785 341.302 220.776C342.837 222.778 344.839 224.038 346.638 224.617C348.437 225.217 350.013 225.237 351.049 225.105C351.568 225.044 351.974 224.943 352.228 224.871C352.493 224.79 352.625 224.739 352.625 224.719C352.615 224.658 352.055 224.8 351.029 224.861C350.013 224.922 348.508 224.821 346.801 224.191C345.093 223.581 343.223 222.351 341.79 220.421C340.347 218.51 339.381 215.96 339.219 213.185C339.005 210.401 339.32 207.718 340.276 205.513C341.18 203.288 342.796 201.723 344.209 200.595C345.632 199.447 347.116 199.081 348.112 199.03C349.118 198.969 349.667 199.172 349.687 199.111Z" fill="#263238"/>
<path d="M326.351 201.174L332.642 200.554C330.965 201.022 329.553 202.211 328.607 203.664C327.662 205.117 327.144 206.814 326.88 208.531C325.751 215.767 329.604 223.561 335.793 227.473L330.732 228.144C330.722 228.154 316.187 215.167 326.351 201.174Z" fill="#263238"/>
<path d="M319.206 214.496C322.438 215.391 326.077 214.669 328.719 212.606C331.362 210.543 332.958 207.2 332.876 203.847C332.805 200.717 331.392 197.526 332.358 194.559C333.029 192.516 334.736 190.921 335.316 188.858C336.169 185.769 334.299 182.639 332.52 179.977C331.372 178.27 330.203 176.532 328.607 175.231C327.012 173.931 324.898 173.108 322.885 173.545" fill="#263238"/>
<path d="M290.351 173.799C290.524 176.156 288.968 178.27 287.393 180.038C285.818 181.806 284.069 183.655 283.734 186.003C283.134 190.159 287.2 194.01 286.356 198.126C285.909 200.331 284.1 202.099 283.785 204.324C283.47 206.479 284.628 208.582 286.062 210.228C287.495 211.864 289.233 213.236 290.503 215.004C291.835 216.874 292.566 219.079 293.522 221.162C294.477 223.246 295.768 225.308 297.781 226.406C300.809 228.052 305.058 227.28 307.375 229.82C309.621 232.279 312.376 232.665 315.14 234.525" fill="#263238"/>
<path d="M326.656 177.416C326.717 175.272 324.735 173.616 322.743 172.833C320.751 172.051 318.535 171.756 316.756 170.557C315.181 169.5 314.124 167.844 312.792 166.492C309.52 163.18 304.417 161.808 299.925 163.027C295.433 164.257 291.733 168.027 290.605 172.539C289.843 175.587 290.361 179.194 292.77 181.227C295.565 183.584 299.701 183.056 303.279 182.324C306.857 181.593 310.902 180.871 313.89 182.975C315.689 184.245 316.726 186.298 317.824 188.208C318.921 190.118 320.304 192.059 322.387 192.781C324.471 193.502 327.296 192.262 327.378 190.057" fill="#263238"/>
<path d="M318.21 177.853C320.06 178.056 321.452 179.631 321.411 181.491L319.277 229.901C319.186 235.623 310.831 238.834 304.702 238.691C298.522 238.549 298.319 235.521 298.238 230.074C298.106 220.99 298.116 217.575 298.116 217.626C298.116 217.626 290.31 216.315 288.714 206.113C287.922 201.042 288.196 192.73 288.633 185.942C289.029 179.824 293.105 172.335 299.193 172.996L318.21 177.853Z" fill="#8D5524"/>
<path d="M290.564 191.775C290.534 192.466 291.103 193.056 291.825 193.096C292.546 193.137 293.146 192.609 293.176 191.918C293.207 191.227 292.638 190.637 291.916 190.597C291.194 190.556 290.595 191.084 290.564 191.775Z" fill="#263238"/>
<path d="M290.432 190.281C290.595 190.454 291.591 189.722 292.993 189.732C294.396 189.722 295.433 190.443 295.585 190.271C295.656 190.2 295.494 189.885 295.046 189.559C294.609 189.234 293.847 188.909 292.973 188.919C292.099 188.919 291.357 189.244 290.93 189.57C290.493 189.895 290.351 190.2 290.432 190.281Z" fill="#263238"/>
<path d="M304.57 192.141C304.54 192.832 305.109 193.422 305.83 193.462C306.552 193.503 307.152 192.975 307.182 192.284C307.213 191.593 306.644 191.003 305.922 190.963C305.2 190.922 304.601 191.45 304.57 192.141Z" fill="#263238"/>
<path d="M304.255 190.576C304.418 190.748 305.414 190.017 306.816 190.027C308.219 190.017 309.256 190.738 309.408 190.565C309.479 190.494 309.317 190.179 308.869 189.854C308.432 189.529 307.67 189.204 306.796 189.214C305.922 189.214 305.18 189.539 304.753 189.864C304.326 190.189 304.174 190.494 304.255 190.576Z" fill="#263238"/>
<path d="M299.122 200.991C299.132 200.91 298.258 200.758 296.835 200.575C296.48 200.534 296.134 200.463 296.073 200.219C295.992 199.955 296.144 199.569 296.317 199.152C296.652 198.288 297.008 197.374 297.384 196.419C298.868 192.527 299.945 189.326 299.783 189.275C299.63 189.214 298.299 192.323 296.815 196.215C296.459 197.171 296.114 198.085 295.788 198.969C295.656 199.376 295.412 199.843 295.595 200.382C295.687 200.646 295.951 200.849 296.185 200.91C296.419 200.981 296.622 200.981 296.795 200.991C298.238 201.062 299.122 201.073 299.122 200.991Z" fill="#263238"/>
<path d="M298.116 217.636C298.116 217.636 304.977 218.094 311.776 214.029C311.776 214.029 308.453 221.02 298.248 220.045L298.116 217.636Z" fill="#BA6D29"/>
<path d="M299.712 204.385C300.22 203.715 301.104 203.349 301.988 203.45C302.598 203.522 303.218 203.816 303.584 204.314C303.95 204.812 304.031 205.513 303.696 205.991C303.32 206.519 302.517 206.641 301.846 206.448C301.175 206.255 300.596 205.808 300.047 205.371C299.895 205.249 299.742 205.117 299.651 204.954C299.559 204.792 299.539 204.568 299.651 204.426" fill="#BA6D29"/>
<path d="M303.269 201.977C303.035 201.967 303.035 203.491 301.724 204.568C300.413 205.656 298.787 205.473 298.777 205.686C298.756 205.777 299.142 205.981 299.823 206.001C300.494 206.021 301.48 205.808 302.283 205.147C303.086 204.487 303.432 203.603 303.482 202.973C303.543 202.343 303.371 201.967 303.269 201.977Z" fill="#263238"/>
<path d="M303.625 188.106C303.767 188.492 305.17 188.309 306.816 188.513C308.473 188.685 309.804 189.163 310.018 188.828C310.119 188.665 309.886 188.299 309.347 187.933C308.818 187.568 307.965 187.212 306.969 187.1C305.983 186.988 305.068 187.141 304.468 187.385C303.879 187.629 303.574 187.923 303.625 188.106Z" fill="#263238"/>
<path d="M290.95 186.206C291.194 186.521 292.17 186.196 293.329 186.186C294.498 186.135 295.484 186.409 295.707 186.074C295.809 185.911 295.656 185.596 295.219 185.291C294.792 184.987 294.081 184.743 293.288 184.763C292.485 184.783 291.794 185.078 291.388 185.403C290.981 185.728 290.849 186.054 290.95 186.206Z" fill="#263238"/>
<path d="M325.324 211.387C322.519 211.956 319.47 211.092 317.376 209.141C315.283 207.19 314.195 204.213 314.561 201.378C314.876 198.878 316.228 196.327 315.364 193.959C314.215 190.83 309.825 189.864 308.656 186.734C307.975 184.916 308.585 182.792 307.822 181.013C307.101 179.337 305.342 178.371 303.625 177.751C301.907 177.132 300.067 176.705 298.634 175.587C297.191 174.469 296.296 172.356 297.221 170.791C304.824 171.705 312.325 173.524 319.501 176.197C321.167 176.817 322.916 177.569 323.891 179.042C324.928 180.607 324.877 182.629 324.796 184.509C324.369 193.665 323.942 202.81 323.515 211.966" fill="#263238"/>
<path d="M330.823 219.852C330.742 219.862 330.955 218.866 330.295 217.311C329.969 216.539 329.39 215.675 328.557 214.832C327.723 213.978 326.595 213.206 325.263 212.494C323.932 211.773 322.407 211.112 320.832 210.218C319.277 209.324 317.671 208.094 316.614 206.296C316.086 205.402 315.76 204.335 315.76 203.237C315.75 202.14 316.004 201.073 316.218 200.006C316.431 198.949 316.645 197.851 316.431 196.805C316.248 195.748 315.516 194.874 314.551 194.325C313.585 193.756 312.488 193.401 311.451 192.913C310.424 192.435 309.377 191.744 308.818 190.708C308.249 189.692 308.097 188.543 308.056 187.486C308.015 186.419 308.087 185.383 308.076 184.397C308.066 183.412 307.985 182.446 307.67 181.582C307.365 180.729 306.826 179.997 306.125 179.489C304.722 178.453 303.066 178.097 301.602 177.721C300.128 177.355 298.776 176.918 297.76 176.197C296.723 175.485 296.164 174.5 295.931 173.666C295.687 172.823 295.809 172.112 295.961 171.695C296.134 171.268 296.317 171.106 296.317 171.106C296.347 171.126 296.205 171.319 296.063 171.736C295.941 172.152 295.87 172.823 296.124 173.616C296.378 174.398 296.937 175.313 297.923 175.953C298.909 176.613 300.22 177.02 301.694 177.355C303.157 177.711 304.865 178.046 306.389 179.133C307.152 179.672 307.772 180.475 308.107 181.41C308.452 182.345 308.544 183.361 308.564 184.377C308.585 185.393 308.524 186.419 308.564 187.456C308.605 188.482 308.768 189.539 309.276 190.433C309.774 191.348 310.689 191.958 311.685 192.425C312.691 192.903 313.789 193.248 314.835 193.858C315.354 194.163 315.842 194.549 316.218 195.037C316.604 195.514 316.838 196.104 316.96 196.683C317.193 197.872 316.949 199.02 316.736 200.087C316.512 201.164 316.268 202.201 316.279 203.217C316.279 204.223 316.563 205.198 317.051 206.042C318.027 207.739 319.562 208.938 321.066 209.832C322.59 210.726 324.115 211.407 325.457 212.159C326.798 212.891 327.947 213.714 328.78 214.618C329.624 215.512 330.193 216.427 330.498 217.23C330.813 218.033 330.894 218.713 330.894 219.161C330.904 219.384 330.874 219.557 330.864 219.669C330.843 219.801 330.833 219.852 330.823 219.852Z" fill="#263238"/>
<path d="M301.114 226.843C301.114 226.863 300.952 226.914 300.616 226.995C300.454 227.046 300.24 227.077 299.986 227.107C299.732 227.148 299.447 227.168 299.122 227.168C297.821 227.198 295.849 226.853 293.878 225.522C292.912 224.851 291.936 223.947 291.235 222.727C290.503 221.518 290.147 220.045 289.873 218.541C289.588 217.037 289.355 215.431 288.552 214.039C287.759 212.637 286.275 211.692 284.954 210.493C283.571 209.314 282.687 207.607 282.453 205.899C282.209 204.192 282.586 202.465 283.399 201.113C284.181 199.762 285.106 198.644 285.533 197.374C285.97 196.124 286.051 194.854 285.97 193.726C285.767 191.449 285.106 189.671 284.679 188.452C284.242 187.232 283.978 186.562 284.019 186.552C284.039 186.541 284.12 186.704 284.273 187.009C284.415 187.314 284.628 187.771 284.872 188.381C285.35 189.58 286.082 191.348 286.346 193.695C286.458 194.864 286.407 196.195 285.96 197.526C285.523 198.878 284.578 200.056 283.836 201.357C283.084 202.648 282.748 204.233 282.982 205.828C283.216 207.424 284.008 208.978 285.32 210.106C286.59 211.265 288.135 212.24 289.009 213.785C289.873 215.309 290.086 216.966 290.361 218.459C290.615 219.963 290.94 221.366 291.621 222.514C292.272 223.672 293.186 224.556 294.101 225.227C295.961 226.548 297.862 226.944 299.132 226.975C300.403 226.995 301.104 226.782 301.114 226.843Z" fill="#263238"/>
<path d="M330.711 178.27C330.711 178.27 330.833 178.392 330.884 178.686C330.945 178.981 330.864 179.469 330.488 179.916C330.132 180.353 329.502 180.79 328.668 180.841C327.835 180.861 326.961 180.495 326.087 180.068C325.213 179.631 324.247 179.235 323.109 179.194C321.991 179.123 320.781 179.296 319.511 179.52C318.24 179.743 316.888 180.028 315.445 180.048C314.012 180.068 312.396 179.642 311.268 178.524C310.119 177.436 309.469 176.065 308.869 174.794C308.27 173.524 307.7 172.295 306.928 171.299C305.424 169.246 302.852 168.677 301.043 169.155C299.183 169.622 298.055 170.892 297.496 171.776C296.927 172.691 296.805 173.301 296.744 173.291C296.723 173.291 296.744 173.138 296.825 172.854C296.906 172.569 297.049 172.163 297.313 171.675C297.841 170.73 298.959 169.348 300.941 168.789C301.917 168.525 303.076 168.504 304.214 168.85C305.363 169.175 306.481 169.937 307.304 170.994C308.137 172.041 308.727 173.301 309.337 174.571C309.947 175.831 310.587 177.152 311.634 178.138C312.66 179.144 314.093 179.53 315.445 179.53C316.817 179.53 318.149 179.255 319.429 179.042C320.71 178.829 321.96 178.666 323.139 178.758C324.328 178.818 325.396 179.276 326.249 179.733C327.113 180.18 327.926 180.536 328.658 180.546C329.39 180.536 329.99 180.16 330.335 179.784C330.691 179.398 330.803 178.981 330.782 178.707C330.762 178.422 330.681 178.28 330.711 178.27Z" fill="#455A64"/>
<path d="M325.009 175.343C321.686 174.571 319.125 171.278 319.216 167.864C319.297 164.45 322.011 161.29 325.375 160.68C327.001 160.385 328.872 160.751 329.847 162.082C330.782 163.352 330.721 165.253 331.911 166.289C333.181 167.397 335.143 166.919 336.789 167.275C339.351 167.824 341.058 170.628 340.763 173.23C340.469 175.831 338.476 178.046 336.057 179.042C333.638 180.038 330.874 179.926 328.353 179.194C325.843 178.463 323.536 177.152 321.32 175.78" fill="#263238"/>
<path d="M337.257 167.976C337.308 167.996 337.145 168.758 336.505 169.846C335.885 170.933 334.726 172.285 333.09 173.311C331.453 174.327 329.725 174.774 328.475 174.855C327.225 174.947 326.463 174.754 326.463 174.703C326.473 174.612 327.235 174.662 328.424 174.479C329.614 174.307 331.24 173.829 332.805 172.864C334.36 171.888 335.509 170.638 336.19 169.642C336.881 168.647 337.175 167.935 337.257 167.976Z" fill="#455A64"/>
<path d="M331.86 179.245C331.728 179.357 330.173 176.756 327.032 174.988C323.922 173.169 320.893 173.138 320.924 172.965C320.924 172.904 321.666 172.823 322.865 172.986C324.054 173.148 325.69 173.606 327.296 174.53C328.902 175.455 330.122 176.634 330.864 177.579C331.606 178.524 331.911 179.215 331.86 179.245Z" fill="#E8505B"/>
<path d="M257.806 289.917L241.371 286.716L244.339 290.933L237.275 294.459L231.38 291.705C231.38 291.705 231.807 292.996 233.098 295.15C234.389 297.304 236.106 299.022 237.224 299.113C238.901 299.245 239.196 299.265 237.224 299.113C237.224 299.113 237.58 301.115 239.409 303.056C240.497 304.214 243.353 306.043 246.839 305.108L257.908 301.115L257.806 289.917Z" fill="#8D5524"/>
<path d="M241.188 298.168C241.29 298.259 240.375 299.113 238.922 299.276C237.458 299.448 236.381 298.829 236.462 298.717C236.513 298.574 237.57 298.92 238.861 298.757C240.151 298.615 241.097 298.046 241.188 298.168Z" fill="#BA6D29"/>
<path d="M243.333 301.684C243.434 301.775 242.733 302.578 241.503 302.893C240.284 303.218 239.277 302.863 239.318 302.731C239.348 302.578 240.284 302.67 241.371 302.375C242.459 302.101 243.231 301.562 243.333 301.684Z" fill="#BA6D29"/>
<path d="M247.5 289.236C247.53 289.317 246.941 289.551 246.067 290.069C245.183 290.577 244.054 291.41 242.743 292.294C241.442 293.189 240.121 293.849 239.105 294.113C238.078 294.388 237.417 294.327 237.417 294.266C237.407 294.185 238.048 294.113 238.993 293.758C239.938 293.412 241.168 292.731 242.459 291.858C243.749 290.973 244.949 290.171 245.904 289.734C246.839 289.287 247.48 289.175 247.5 289.236Z" fill="#BA6D29"/>
<path d="M347.431 317.252C347.431 317.252 348 317.607 349.392 320.097C353.692 327.769 355.43 346.152 339.208 362.563C318.24 383.77 293.705 418.452 293.705 418.452L274.434 499.909L245.325 493.608L260.327 408.941L301.46 332.657L347.431 317.252Z" fill="#263238"/>
<path d="M379.549 474.911L334.706 406.299L321.096 347.066L286.468 364.087L303.838 424.204L359.251 493.222L379.549 474.911Z" fill="#263238"/>
<path d="M274.444 499.909C274.434 499.909 274.454 499.767 274.515 499.502C274.576 499.218 274.658 498.832 274.77 498.334C275.003 497.277 275.349 495.783 275.776 493.852C276.68 489.94 277.981 484.331 279.577 477.411C282.85 463.509 287.352 444.355 292.322 423.198C292.709 421.552 293.105 419.916 293.461 418.381L293.471 418.32L293.501 418.28C306.216 402.031 317.783 387.652 326.31 377.44C330.579 372.338 334.055 368.264 336.535 365.51C337.755 364.118 338.741 363.081 339.401 362.36C339.717 362.024 339.971 361.76 340.164 361.557C340.337 361.374 340.428 361.293 340.438 361.293C340.448 361.303 340.367 361.394 340.204 361.587C340.021 361.791 339.788 362.075 339.483 362.421C338.853 363.162 337.887 364.219 336.688 365.632C334.269 368.426 330.823 372.531 326.595 377.663C318.149 387.937 306.633 402.346 293.928 418.605L293.979 418.503C293.613 420.027 293.227 421.663 292.841 423.32C287.81 444.466 283.246 463.601 279.943 477.492C278.276 484.402 276.914 490.001 275.979 493.903C275.501 495.814 275.135 497.307 274.871 498.354C274.749 498.842 274.648 499.228 274.566 499.512C274.485 499.777 274.444 499.909 274.444 499.909Z" fill="#455A64"/>
<path d="M327.032 338.916C327.042 338.947 326.798 339.099 326.331 339.303C325.863 339.516 325.152 339.76 324.247 339.973C322.448 340.4 319.806 340.563 317.051 339.77C314.307 338.967 312.152 337.413 310.871 336.081C310.221 335.421 309.764 334.821 309.479 334.395C309.194 333.968 309.062 333.704 309.093 333.693C309.164 333.643 309.804 334.588 311.136 335.817C312.457 337.047 314.561 338.5 317.204 339.262C319.846 340.034 322.407 339.933 324.176 339.607C325.944 339.282 326.991 338.825 327.032 338.916Z" fill="#455A64"/>
<path d="M351.75 320.717C334.218 329.954 305.739 335.472 296.642 331.722L296.327 297.944C296.327 297.944 283.856 277.377 283.805 269.603C283.734 258.395 297.689 232.848 297.689 232.848L318.637 227.3C323.566 227.28 327.55 228.408 330.762 230.115C338.832 234.403 343.223 243.406 342.318 252.491L337.043 286.096L351.75 320.717Z" fill="#EB996E"/>
<g opacity="0.3">
<path opacity="0.3" d="M329.278 230.074C330.498 229.891 330.945 231.883 330.071 232.747C329.197 233.61 327.835 233.661 326.626 233.854C321.168 234.708 316.96 239.382 314.968 244.524C312.976 249.676 312.793 255.306 312.467 260.824C312.142 266.331 311.603 272.002 309.012 276.879C304.194 268.333 303.442 257.613 307.019 248.477C310.597 239.342 318.444 231.995 327.784 228.997" fill="black"/>
</g>
<path d="M330.752 230.105C330.752 230.105 327.744 225.136 317.63 227.29C310.872 228.733 296.114 242.898 300.23 265.681C304.346 288.464 315.384 296.522 315.384 296.522C315.384 296.522 305.231 261.657 310.871 246.445C316.512 231.233 330.752 230.105 330.752 230.105Z" fill="#263238"/>
<g opacity="0.3">
<path opacity="0.3" d="M296.703 305.169C300.88 306.511 304.885 308.187 309.235 308.767C313.585 309.346 318.128 309.122 322.164 307.405C327.743 305.027 331.89 299.946 334.025 294.266C336.159 288.586 336.454 282.367 335.885 276.32C332.063 281.035 332.531 288.016 329.288 293.138C327.256 296.349 323.952 298.524 320.558 300.231C313.179 303.94 304.976 305.352 296.703 305.169Z" fill="black"/>
</g>
<path d="M309.266 270.65C309.266 270.65 307.904 296.298 339.198 291.197L342.349 298.615C342.349 298.615 309.449 305.566 304.783 278.322L309.266 270.65Z" fill="#263238"/>
<path d="M337.785 238.763C340.519 242.665 341.231 247.634 340.103 252.258L332.307 287.143C328.963 296.959 319.419 302.914 313.484 303.717L257.898 309.57V288.861L309.499 281.199L311.918 252.949C312.132 249.149 314.002 242.32 316.421 239.383C319.125 236.091 323.282 231.62 330.071 232.758C334.238 233.449 335.997 236.213 337.785 238.763Z" fill="#EB996E"/>
<path d="M339.401 253.609C339.422 253.609 339.401 253.883 339.34 254.391C339.29 254.909 339.188 255.661 339.066 256.637C338.802 258.578 338.385 261.393 337.775 264.848C337.165 268.303 336.352 272.408 335.316 276.93C334.787 279.196 334.238 281.564 333.557 284.002C332.876 286.441 332.053 288.951 330.833 291.37C329.624 293.788 328.038 295.963 326.138 297.68C324.247 299.408 322.143 300.729 320.019 301.714C315.77 303.706 311.563 304.438 308.076 304.814C304.57 305.169 301.724 305.19 299.762 305.21C298.817 305.21 298.065 305.2 297.506 305.2C296.988 305.19 296.713 305.18 296.713 305.159C296.713 305.139 296.988 305.119 297.496 305.098C298.065 305.078 298.817 305.047 299.752 305.007C301.714 304.925 304.55 304.844 308.026 304.438C311.481 304.021 315.638 303.249 319.806 301.267C321.879 300.292 323.942 298.981 325.782 297.294C327.632 295.617 329.177 293.504 330.356 291.136C331.545 288.768 332.368 286.289 333.049 283.87C333.73 281.452 334.289 279.084 334.828 276.828C335.895 272.317 336.738 268.231 337.389 264.787C338.05 261.342 338.517 258.547 338.842 256.606C338.995 255.682 339.127 254.94 339.218 254.381C339.33 253.873 339.381 253.609 339.401 253.609Z" fill="#263238"/>
<path d="M311.004 287.143C310.861 287.183 310.302 285.832 309.753 284.125C309.205 282.417 308.869 280.985 309.001 280.944C309.144 280.903 309.703 282.255 310.252 283.962C310.8 285.669 311.136 287.092 311.004 287.143Z" fill="#263238"/>
<path d="M314.165 286.35C314.083 286.462 312.701 285.598 311.329 284.145C309.947 282.702 309.154 281.269 309.276 281.198C309.398 281.117 310.374 282.366 311.715 283.779C313.047 285.191 314.256 286.228 314.165 286.35Z" fill="#263238"/>
<path d="M262.735 288.138C262.735 288.128 262.817 288.108 262.969 288.077C263.152 288.047 263.376 288.006 263.66 287.945C264.311 287.834 265.195 287.691 266.323 287.498C268.691 287.132 272.046 286.604 276.213 285.954C284.639 284.683 296.317 282.915 309.459 280.924L309.235 281.157C309.418 279.227 309.611 277.194 309.814 275.131C310.485 267.795 311.187 260.824 311.532 254.452C311.786 251.251 312.396 248.243 313.26 245.53C314.124 242.817 315.262 240.348 316.899 238.498C320.192 234.911 323.881 233.011 326.595 232.665C327.947 232.462 329.014 232.605 329.715 232.716C330.061 232.798 330.325 232.869 330.498 232.92C330.671 232.97 330.762 233.001 330.762 233.011C330.762 233.113 329.299 232.452 326.625 232.869C323.983 233.265 320.385 235.186 317.173 238.742C315.618 240.541 314.51 242.98 313.677 245.662C312.843 248.355 312.254 251.333 312.02 254.493C311.705 260.864 311.014 267.856 310.343 275.192C310.14 277.255 309.947 279.298 309.764 281.218L309.743 281.421L309.54 281.452C296.378 283.373 284.7 285.08 276.264 286.309C272.096 286.899 268.722 287.366 266.354 287.701C265.215 287.854 264.321 287.966 263.671 288.057C263.386 288.088 263.162 288.118 262.969 288.138C262.827 288.149 262.746 288.149 262.735 288.138Z" fill="#263238"/>
<path d="M294.559 305.048C294.416 305.058 293.827 300.363 293.247 294.55C292.668 288.738 292.312 284.013 292.455 284.003C292.597 283.992 293.186 288.687 293.766 294.5C294.345 300.312 294.701 305.027 294.559 305.048Z" fill="#FAFAFA"/>
<path d="M335.244 273.546C335.244 273.617 333.893 273.638 331.707 273.597C329.522 273.566 326.514 273.475 323.18 273.353C319.846 273.231 316.838 273.089 314.663 272.957C312.488 272.825 311.136 272.713 311.146 272.642C311.146 272.571 312.498 272.55 314.683 272.591C316.868 272.621 319.877 272.713 323.2 272.835C326.524 272.957 329.532 273.099 331.718 273.231C333.903 273.353 335.244 273.475 335.244 273.546Z" fill="#FAFAFA"/>
<path d="M299.966 266.941C299.966 267.012 299.092 267.144 297.658 267.246C296.225 267.347 294.254 267.419 292.058 267.378C289.873 267.337 287.891 267.185 286.468 267.022C285.045 266.86 284.171 266.697 284.181 266.626C284.191 266.555 285.076 266.585 286.499 266.646C287.922 266.707 289.893 266.799 292.068 266.839C294.243 266.88 296.215 266.87 297.638 266.86C299.071 266.86 299.956 266.87 299.966 266.941Z" fill="#FAFAFA"/>
<path d="M304.55 242.807C304.468 242.939 302.334 241.821 299.569 240.774C296.805 239.718 294.457 239.138 294.498 238.986C294.518 238.854 296.947 239.21 299.762 240.277C302.578 241.354 304.631 242.695 304.55 242.807Z" fill="#FAFAFA"/>
<path d="M344.92 306.216C344.931 306.236 344.768 306.307 344.463 306.44C344.097 306.592 343.66 306.775 343.121 306.988C341.953 307.466 340.245 308.096 338.121 308.838C333.872 310.321 327.916 312.15 321.218 313.685C314.52 315.219 308.361 316.164 303.889 316.672C301.653 316.926 299.844 317.099 298.583 317.181C298.004 317.211 297.526 317.241 297.14 317.262C296.805 317.272 296.632 317.272 296.632 317.252C296.632 317.231 296.805 317.201 297.13 317.15C297.516 317.099 297.994 317.038 298.563 316.967C299.813 316.825 301.612 316.601 303.838 316.296C308.29 315.697 314.419 314.691 321.096 313.167C327.774 311.632 333.73 309.874 337.999 308.482C340.133 307.791 341.861 307.202 343.04 306.795C343.589 306.612 344.046 306.46 344.412 306.338C344.748 306.236 344.92 306.196 344.92 306.216Z" fill="#FAFAFA"/>
<path d="M341.607 245.439C341.607 245.581 335.61 245.51 328.221 245.276C320.832 245.042 314.856 244.727 314.856 244.575C314.856 244.433 320.852 244.504 328.242 244.738C335.631 244.981 341.617 245.296 341.607 245.439Z" fill="#FAFAFA"/>
<path d="M269.993 308.066C269.85 308.076 269.555 303.533 269.342 297.924C269.129 292.315 269.068 287.773 269.22 287.762C269.362 287.752 269.657 292.294 269.871 297.904C270.084 303.503 270.135 308.055 269.993 308.066Z" fill="#FAFAFA"/>
<path d="M156.289 204.142C165.274 202.445 174.737 203.43 183.183 206.946C186.964 208.521 190.694 210.747 192.737 214.283C195.146 218.47 194.749 223.642 194.495 228.469C193.967 238.295 194.312 248.162 195.522 257.928C196.528 266.057 198.134 274.146 198.114 282.336C198.083 290.526 196.254 299.022 191.121 305.403C183.203 315.24 169.096 317.994 156.584 316.327C149.998 315.453 143.422 313.472 138.045 309.559C132.679 305.647 128.634 299.591 128.176 292.965" fill="#455A64"/>
<path d="M171.952 216.6C171.86 216.681 173.487 218.083 174.92 221.142C175.641 222.656 176.302 224.546 176.932 226.701C177.583 228.835 178.213 231.243 179.28 233.641C180.347 236.039 181.841 238.153 183.661 239.576C185.46 241.029 187.594 241.638 189.332 241.598C191.08 241.577 192.452 241.018 193.235 240.47C193.642 240.206 193.916 239.941 194.079 239.758C194.251 239.565 194.333 239.464 194.312 239.443C194.272 239.393 193.906 239.789 193.093 240.246C192.3 240.714 190.989 241.171 189.332 241.13C187.686 241.11 185.724 240.5 184.047 239.098C182.349 237.726 180.927 235.694 179.89 233.367C178.853 231.029 178.203 228.662 177.522 226.518C176.861 224.374 176.139 222.453 175.347 220.939C174.564 219.415 173.72 218.287 173.06 217.596C172.419 216.874 171.982 216.569 171.952 216.6Z" fill="#263238"/>
<path d="M175.54 315.687C175.56 315.687 175.611 315.413 175.692 314.884C175.773 314.285 175.875 313.522 175.997 312.577C176.251 310.565 176.587 307.659 176.963 304.062C177.725 296.857 178.65 286.899 179.432 275.883C180.215 264.858 180.713 254.869 180.967 247.634C181.099 244.016 181.181 241.09 181.211 239.067C181.221 238.112 181.231 237.34 181.231 236.74C181.231 236.212 181.221 235.927 181.191 235.927C181.17 235.927 181.13 236.202 181.089 236.74C181.049 237.34 180.998 238.112 180.937 239.067C180.825 241.171 180.672 244.077 180.479 247.624C180.093 254.849 179.524 264.827 178.751 275.853C177.969 286.868 177.125 296.827 176.475 304.031C176.16 307.568 175.906 310.464 175.723 312.567C175.651 313.522 175.591 314.285 175.54 314.894C175.53 315.402 175.519 315.687 175.54 315.687Z" fill="#263238"/>
<path d="M179.554 271.555C179.534 271.727 183.478 272.276 188.387 272.398C193.296 272.53 197.26 272.195 197.25 272.012C197.24 271.819 193.276 271.859 188.397 271.727C183.529 271.605 179.575 271.361 179.554 271.555Z" fill="#263238"/>
<path d="M182.756 271.941C182.675 271.91 182.319 272.571 181.933 273.729C181.74 274.308 181.557 275.009 181.404 275.802C181.333 276.209 181.272 276.676 181.425 277.184C181.567 277.702 182.014 278.17 182.624 278.281C182.929 278.332 183.295 278.241 183.528 278.017C183.772 277.804 183.884 277.519 183.945 277.275C184.057 276.767 183.996 276.33 183.966 275.934C183.884 275.121 183.732 274.41 183.559 273.821C183.224 272.642 182.837 271.981 182.756 272.012C182.665 272.052 182.878 272.764 183.091 273.922C183.193 274.501 183.295 275.202 183.335 275.975C183.356 276.371 183.386 276.767 183.295 277.113C183.213 277.458 183 277.651 182.715 277.611C182.024 277.489 181.872 276.635 182.004 275.893C182.116 275.121 182.258 274.43 182.38 273.851C182.644 272.693 182.847 271.971 182.756 271.941Z" fill="#263238"/>
<path d="M147 206.591L189.525 207.993C194.912 208.166 199.415 203.948 199.587 198.573L199.862 190.311C200.035 184.926 195.817 180.424 190.44 180.251L147.914 178.849C142.528 178.676 138.025 182.893 137.852 188.269L137.578 196.53C137.405 201.916 141.623 206.418 147 206.591Z" fill="#263238"/>
<path d="M189.434 180.79C189.444 180.77 189.322 180.688 189.068 180.556C188.814 180.434 188.417 180.292 187.879 180.19C186.822 179.997 185.145 180.089 183.427 181.024C181.75 181.928 179.758 183.28 178.396 185.495C176.993 187.659 176.221 190.464 176.007 193.38C175.733 196.327 176.383 199.203 177.634 201.449C178.884 203.715 180.723 205.29 182.451 206.154C184.189 207.038 185.765 207.302 186.842 207.312C187.381 207.332 187.797 207.292 188.072 207.251C188.346 207.21 188.499 207.17 188.488 207.149C188.478 207.088 187.899 207.149 186.852 207.048C185.815 206.956 184.301 206.621 182.665 205.727C181.028 204.843 179.321 203.318 178.172 201.154C177.003 199 176.404 196.266 176.668 193.431C176.871 190.586 177.603 187.903 178.904 185.82C180.154 183.706 182.034 182.365 183.63 181.43C185.246 180.485 186.801 180.333 187.828 180.444C188.875 180.556 189.403 180.851 189.434 180.79Z" fill="#455A64"/>
<path d="M165.488 179.316L171.952 179.642C170.183 179.855 168.567 180.851 167.388 182.172C166.209 183.503 165.427 185.139 164.888 186.836C162.642 193.99 165.356 202.465 171.027 207.373L165.793 207.282C165.813 207.302 153.078 191.947 165.488 179.316Z" fill="#455A64"/>
<path d="M133.899 167.143C131.256 160.761 131.124 149.654 135.159 143.811C139.194 137.968 146.756 134.117 153.698 132.623C154.856 132.369 156.107 132.207 157.204 132.664C158.302 133.121 159.115 134.432 158.648 135.519C160.04 134.645 161.473 133.761 163.069 133.396C164.675 133.03 166.514 133.263 167.683 134.412C168.862 135.56 169.045 137.724 167.795 138.791C169.736 138.08 172.064 138.639 173.477 140.133C174.9 141.627 175.316 143.984 174.503 145.884C173.731 147.703 172.084 149.725 170.621 151.057C169.167 152.388 168.923 153.77 169.167 155.731" fill="#263238"/>
<path d="M135.565 155.436L133.726 194.539C133.411 201.184 138.726 206.743 145.384 206.733C151.594 206.723 156.706 201.825 156.991 195.616C157.123 192.669 157.245 190.22 157.275 189.915C157.275 189.915 167.277 189.448 168.456 179.631C169.025 174.886 169.411 165.019 169.645 156.087C169.899 146.494 162.744 138.314 153.2 137.288L152.255 137.186C141.969 136.678 135.789 145.132 135.565 155.436Z" fill="#8D5524"/>
<path d="M157.316 189.763C157.316 189.763 151.045 189.6 144.886 184.743C144.886 184.743 146.847 190.891 156.757 191.063L157.316 189.763Z" fill="#BB7131"/>
<path d="M166.078 162.357C166.027 163.099 165.346 163.668 164.574 163.628C163.801 163.587 163.212 162.947 163.263 162.205C163.314 161.463 163.995 160.894 164.767 160.935C165.55 160.975 166.139 161.616 166.078 162.357Z" fill="#263238"/>
<path d="M167.023 160.68C166.829 160.842 165.854 159.938 164.339 159.786C162.835 159.603 161.636 160.263 161.493 160.06C161.422 159.968 161.636 159.653 162.154 159.359C162.662 159.064 163.516 158.81 164.451 158.912C165.396 159.013 166.149 159.45 166.565 159.857C166.992 160.253 167.114 160.598 167.023 160.68Z" fill="#263238"/>
<path d="M151.208 161.27C151.158 162.012 150.477 162.581 149.704 162.54C148.932 162.5 148.342 161.86 148.393 161.118C148.444 160.376 149.125 159.807 149.897 159.848C150.67 159.888 151.259 160.528 151.208 161.27Z" fill="#263238"/>
<path d="M152.143 159.359C151.95 159.521 150.964 158.617 149.459 158.465C147.955 158.282 146.756 158.942 146.614 158.739C146.542 158.647 146.756 158.332 147.274 158.038C147.782 157.743 148.636 157.489 149.571 157.591C150.516 157.702 151.269 158.129 151.685 158.536C152.112 158.932 152.234 159.288 152.143 159.359Z" fill="#263238"/>
<path d="M156.411 171.146C156.411 171.055 157.367 170.994 158.912 170.963C159.298 170.963 159.674 170.933 159.766 170.669C159.888 170.405 159.766 169.968 159.633 169.5C159.369 168.525 159.095 167.508 158.81 166.441C157.672 162.092 156.899 158.525 157.072 158.485C157.245 158.444 158.312 161.93 159.44 166.289C159.715 167.366 159.969 168.382 160.213 169.358C160.314 169.815 160.508 170.333 160.253 170.892C160.121 171.167 159.816 171.35 159.562 171.39C159.308 171.441 159.085 171.421 158.902 171.411C157.357 171.329 156.411 171.238 156.411 171.146Z" fill="#263238"/>
<path d="M151.858 171.715C152.102 171.726 151.929 173.372 153.21 174.683C154.48 176.004 156.249 176.004 156.239 176.237C156.249 176.339 155.812 176.512 155.07 176.451C154.348 176.4 153.312 176.054 152.529 175.252C151.746 174.449 151.482 173.453 151.502 172.772C151.513 172.081 151.746 171.695 151.858 171.715Z" fill="#263238"/>
<path d="M153.169 153.475C152.976 153.871 151.492 153.516 149.693 153.536C147.894 153.526 146.41 153.892 146.217 153.495C146.136 153.313 146.42 152.947 147.04 152.611C147.66 152.276 148.616 152.002 149.683 151.992C150.76 151.992 151.716 152.266 152.336 152.601C152.956 152.937 153.251 153.292 153.169 153.475Z" fill="#263238"/>
<path d="M166.941 156.239C166.636 156.554 165.64 156.087 164.39 155.934C163.15 155.741 162.052 155.914 161.849 155.528C161.758 155.345 161.961 155.02 162.459 154.745C162.947 154.471 163.74 154.288 164.604 154.41C165.457 154.532 166.169 154.918 166.565 155.325C166.962 155.721 167.073 156.087 166.941 156.239Z" fill="#263238"/>
<path d="M135.586 162.804C135.423 162.712 129.05 160.08 128.532 166.818C128.024 173.565 134.895 172.681 134.925 172.488C134.956 172.295 135.586 162.804 135.586 162.804Z" fill="#8D5524"/>
<path d="M133.056 169.776C133.025 169.755 132.934 169.847 132.731 169.928C132.527 169.999 132.192 170.04 131.846 169.877C131.155 169.562 130.637 168.383 130.698 167.164C130.728 166.544 130.901 165.975 131.155 165.508C131.399 165.03 131.745 164.705 132.111 164.674C132.476 164.624 132.71 164.857 132.781 165.05C132.852 165.243 132.802 165.376 132.842 165.396C132.863 165.416 132.995 165.294 132.964 165.01C132.944 164.878 132.883 164.705 132.731 164.563C132.578 164.42 132.344 164.329 132.09 164.339C131.572 164.339 131.064 164.776 130.779 165.294C130.474 165.812 130.261 166.453 130.23 167.144C130.169 168.505 130.769 169.826 131.724 170.182C132.192 170.345 132.598 170.233 132.812 170.08C133.035 169.938 133.076 169.796 133.056 169.776Z" fill="#BB7131"/>
<path d="M174.93 143.679C175.052 152.479 164.004 155.304 159.644 150.061C157.631 147.632 155.944 144.665 153.037 143.415C151.086 142.572 148.799 142.775 146.837 143.588C146.817 143.598 146.796 143.608 146.776 143.608C143.89 144.838 141.999 147.927 141.328 150.996C140.393 155.274 140.8 159.135 139.377 163.017C139.174 163.576 138.93 164.175 138.432 164.48C137.568 165.009 136.429 164.399 135.82 163.596C134.834 162.316 134.58 160.629 134.468 159.013C134.214 155.345 134.519 151.605 135.708 148.12C136.897 144.634 138.991 141.423 141.908 139.178C145.556 136.373 150.364 135.235 154.928 135.804C159.491 136.363 163.79 138.568 167.144 141.718C168.7 143.181 170.092 144.888 170.763 146.921" fill="#263238"/>
<path d="M168.161 138.324C168.161 138.304 168.506 138.273 169.086 138.436C169.665 138.598 170.488 139.025 171.22 139.848C171.942 140.661 172.572 141.901 172.633 143.374C172.694 144.848 172.084 146.443 171.007 147.724C169.919 149.004 168.506 149.858 167.134 150.295C165.762 150.742 164.461 150.843 163.394 150.833C162.317 150.813 161.463 150.681 160.873 150.559C160.284 150.437 159.969 150.335 159.979 150.305C159.989 150.213 161.29 150.498 163.394 150.467C164.441 150.437 165.691 150.295 166.982 149.847C168.273 149.41 169.584 148.598 170.61 147.398C171.617 146.209 172.196 144.746 172.155 143.405C172.125 142.064 171.576 140.895 170.936 140.102C170.285 139.31 169.553 138.852 169.015 138.649C168.476 138.415 168.151 138.375 168.161 138.324Z" fill="#455A64"/>
<path d="M163.882 134.889C163.882 134.859 164.136 134.828 164.512 135.052C164.878 135.265 165.335 135.784 165.457 136.576C165.579 137.369 165.264 138.283 164.746 139.117C164.228 139.95 163.547 140.803 162.703 141.555C161.016 143.08 159.074 143.913 157.641 144.238C156.198 144.594 155.273 144.502 155.283 144.452C155.273 144.36 156.178 144.309 157.55 143.882C158.912 143.476 160.741 142.622 162.357 141.159C163.17 140.438 163.821 139.625 164.349 138.852C164.868 138.08 165.163 137.277 165.102 136.607C165.041 135.936 164.695 135.448 164.41 135.215C164.095 134.981 163.872 134.94 163.882 134.889Z" fill="#455A64"/>
<path d="M135.291 230.907L138.462 207.8L93.0297 216.915L51.6934 202.587L40.5334 214.059L84.5226 236.71C88.4458 238.58 92.8671 239.149 97.1359 238.315L135.291 230.907Z" fill="#8D5524"/>
<path d="M51.6933 202.597C51.6933 202.597 35.8886 195.037 34.8722 194.783C34.0896 194.589 22.1572 193.949 16.7195 193.675C14.5648 193.563 14.2396 196.764 16.3841 197.059C16.4553 197.069 16.5163 197.079 16.5874 197.079C19.6264 197.333 26.304 198.847 26.304 198.847L23.2651 205.95C22.95 206.682 23.1837 207.525 23.8241 207.993L33.0224 214.791C35.4718 215.899 38.338 215.624 40.5233 214.059L44.5787 214.893L51.6933 202.597Z" fill="#8D5524"/>
<path d="M23.2258 206.367C23.5206 207.698 26.6815 210.412 29.0904 210.412C29.6189 210.412 30.1576 210.259 30.5438 209.893C30.9199 209.527 31.1028 208.928 30.8792 208.45C30.7369 208.135 30.4523 207.912 30.1779 207.698C28.3789 206.306 26.5901 204.914 24.7911 203.522" fill="#8D5524"/>
<path d="M24.7998 203.522C24.8405 203.461 25.7044 204.04 27.046 205.026C27.7676 205.564 28.5503 206.143 29.3939 206.773C29.8411 207.119 30.2883 207.414 30.7761 207.861C31.0201 208.084 31.2335 208.46 31.2335 208.846C31.2437 209.222 31.1116 209.598 30.8778 209.893C30.3899 210.493 29.6378 210.676 28.9975 210.655C28.347 210.635 27.7575 210.462 27.229 210.239C26.1821 209.791 25.3487 209.182 24.7185 208.613C24.0883 208.044 23.6615 207.495 23.4277 207.068C23.1939 206.641 23.1838 206.357 23.2142 206.357C23.2549 206.347 23.3362 206.59 23.6005 206.956C23.8647 207.322 24.3221 207.81 24.9624 208.328C25.5926 208.846 26.426 209.385 27.4119 209.781C27.8998 209.974 28.4486 210.127 29.0076 210.137C29.5463 210.157 30.1358 209.985 30.4611 209.568C30.7863 209.141 30.7965 208.572 30.4102 208.227C30.024 207.861 29.5057 207.495 29.0991 207.16C28.2758 206.499 27.5136 205.879 26.8224 205.32C25.5316 204.263 24.7591 203.583 24.7998 203.522Z" fill="#BB7131"/>
<path d="M36.0004 210.472C35.9496 210.513 35.6446 210.289 35.3092 209.781C34.9738 209.283 34.6588 208.47 34.6181 207.535C34.5774 206.601 34.8214 205.767 35.106 205.239C35.3905 204.7 35.6751 204.456 35.726 204.487C35.8581 204.568 35.045 205.798 35.1466 207.505C35.2076 209.232 36.1223 210.381 36.0004 210.472Z" fill="#BB7131"/>
<path d="M29.6792 206.824C30.1569 207.566 31.153 207.942 32.0067 207.688C32.8605 207.444 33.4907 206.591 33.5008 205.707C33.5008 204.548 32.5759 203.623 31.712 202.851C30.3907 201.662 29.0694 200.473 27.7582 199.284" fill="#8D5524"/>
<path d="M27.7473 199.284C27.7981 199.233 28.4283 199.711 29.404 200.524C29.9427 200.981 30.5119 201.469 31.1014 201.987C31.7214 202.556 32.4735 203.115 33.0935 203.938C33.3984 204.355 33.6424 204.833 33.7135 205.341C33.7948 205.849 33.683 206.367 33.4492 206.773C32.9919 207.607 32.1076 208.013 31.4165 207.952C30.7152 207.912 30.2273 207.586 29.9732 207.312C29.709 207.038 29.648 206.834 29.6785 206.814C29.7191 206.794 29.8309 206.956 30.1053 207.149C30.3798 207.342 30.8371 207.576 31.4266 207.566C32.006 207.566 32.6768 207.21 33.0325 206.53C33.4086 205.859 33.246 204.965 32.6768 204.233C32.1279 203.501 31.386 202.912 30.7863 202.333C30.2171 201.794 29.6785 201.276 29.1601 200.788C28.2454 199.914 27.6965 199.335 27.7473 199.284Z" fill="#BB7131"/>
<path d="M36.4476 198.685C33.2663 199.437 30.207 200.717 27.4323 202.455C27.2697 202.556 27.0867 202.678 27.0359 202.871C26.9647 203.136 27.168 203.39 27.3815 203.562C28.1946 204.213 29.3228 204.324 30.3595 204.243C31.3962 204.152 32.4329 203.898 33.4696 203.928C35.2788 203.969 36.9456 204.833 38.6938 205.31C40.4318 205.788 42.5561 205.778 43.7554 204.426" fill="#8D5524"/>
<path d="M43.7554 204.416C43.7655 204.426 43.7147 204.507 43.5927 204.66C43.4606 204.802 43.2573 205.005 42.9321 205.188C42.3019 205.584 41.2144 205.859 39.9033 205.727C38.5718 205.625 37.1387 204.995 35.543 204.528C34.74 204.294 33.8964 204.131 33.002 204.182C32.1076 204.223 31.1827 204.446 30.1765 204.518C29.1804 204.578 28.103 204.446 27.2798 203.827C27.0765 203.674 26.863 203.481 26.7716 203.146C26.7309 202.983 26.7614 202.78 26.8529 202.627C26.9444 202.485 27.0562 202.394 27.168 202.323C27.5644 202.069 27.9303 201.855 28.3063 201.642C29.7902 200.798 31.2132 200.189 32.4125 199.741C33.622 199.294 34.6282 199.02 35.3295 198.857C36.0308 198.695 36.4272 198.644 36.4374 198.675C36.4577 198.766 34.9128 199.122 32.5548 200.087C31.3758 200.575 30.0037 201.215 28.5502 202.058C28.1945 202.272 27.8083 202.495 27.4627 202.729C27.3001 202.851 27.2493 202.922 27.2798 203.024C27.3103 203.136 27.4322 203.288 27.5948 203.4C28.2657 203.908 29.2109 204.04 30.146 203.979C31.0912 203.918 32.0263 203.705 32.9817 203.654C33.9473 203.603 34.862 203.796 35.6853 204.05C37.3216 204.568 38.7039 205.209 39.9541 205.351C41.1941 205.524 42.2206 205.32 42.8406 205.005C43.4708 204.7 43.7249 204.375 43.7554 204.416Z" fill="#BB7131"/>
<path d="M93.7412 224.912C93.6091 224.943 93.0704 223.144 93.0094 220.847C92.9383 218.541 93.3753 216.712 93.5075 216.742C93.6599 216.762 93.4668 218.592 93.5379 220.837C93.5888 223.073 93.8937 224.882 93.7412 224.912Z" fill="#BB7131"/>
<path d="M133.492 197.079L120.604 211.6C120.604 211.6 113.723 261.759 113.225 265.691C112.737 269.624 111.426 282.224 111.426 285.669C111.426 289.114 108.57 313.736 108.57 313.736C108.57 313.736 163.272 325.086 172.419 313.736L169.574 292.65L172.054 240.338C172.054 240.338 176.16 204.03 157.001 195.606C156.991 195.606 144.886 202.902 133.492 197.079Z" fill="#E8505B"/>
<path d="M165.772 200.758C165.772 200.758 162.002 197.028 149.957 200.148C137.263 203.44 130.565 215.319 133.716 248.955C136.318 276.686 147.284 280.68 147.284 280.68C147.284 280.68 141.278 238.844 142.304 221.345C143.605 199.244 165.772 204.741 165.772 204.741C168.933 203.715 165.772 200.758 165.772 200.758Z" fill="#263238"/>
<path d="M133.492 197.08L122.342 200.149L97.2781 215.493L104.413 238.153L119.13 236.538L133.492 197.08Z" fill="#E8505B"/>
<path d="M118.988 212.809C119.13 212.82 118.5 220.929 117.575 230.897C116.651 240.876 115.776 248.955 115.634 248.945C115.492 248.934 116.122 240.836 117.047 230.847C117.972 220.878 118.846 212.799 118.988 212.809Z" fill="#263238"/>
<path d="M170.011 283.24C170.011 283.24 166.453 294.672 153.871 275.792C141.298 256.911 143.066 265.356 143.066 265.356L140.485 268.425C140.485 268.425 154.318 299.58 169.838 294.693L170.011 283.24Z" fill="#263238"/>
<path opacity="0.3" d="M118.48 218.266L108.56 237.696L116.752 236.801L118.48 218.266Z" fill="black"/>
<g opacity="0.3">
<path opacity="0.3" d="M113.927 269.868C121.194 277.794 129.853 284.44 139.387 289.409C143.392 291.502 147.803 293.341 152.275 292.762C157.194 292.132 161.402 288.565 163.729 284.196C166.057 279.816 165.722 277.702 166.27 272.784C166.88 267.358 166.88 260.112 167.165 255.174C167.216 254.3 167.236 253.284 167.236 252.318C167.236 250.174 168.639 248.274 170.702 247.654C170.702 247.654 167.703 246.242 165.691 246.526C163.679 246.811 162.164 248.487 161.107 250.225C155.527 259.421 157.956 272.896 147.315 278.627C143.839 280.497 139.794 280.934 135.901 280.304C127.19 278.881 120.523 273.16 114.099 267.581" fill="black"/>
</g>
<path d="M125.961 250.835C128.627 250.835 130.788 244.338 130.788 236.324C130.788 228.31 128.627 221.813 125.961 221.813C123.294 221.813 121.133 228.31 121.133 236.324C121.133 244.338 123.294 250.835 125.961 250.835Z" fill="#FAFAFA"/>
<path d="M128.543 488.711L129.651 512.601C129.651 512.601 105.736 521.746 105.512 526.187L151.92 525.709L151.727 488.416L128.543 488.711Z" fill="#E8505B"/>
<g opacity="0.6">
<path opacity="0.6" d="M143.981 510.436C144.886 510.67 145.516 511.676 145.312 512.581C145.109 513.495 144.103 514.145 143.198 513.922C142.294 513.698 141.501 512.52 141.796 511.636C142.09 510.751 143.33 510.06 144.154 510.487" fill="white"/>
</g>
<path opacity="0.6" d="M151.919 525.699L151.899 521.98L107.32 523.809C107.32 523.809 105.267 524.734 105.511 526.177L151.919 525.699Z" fill="white"/>
<path d="M128.898 512.367C128.908 512.591 130.046 512.682 131.164 513.404C132.303 514.095 132.892 515.07 133.096 514.979C133.309 514.928 132.953 513.586 131.581 512.733C130.209 511.879 128.847 512.164 128.898 512.367Z" fill="#263238"/>
<path d="M124.05 514.43C123.999 514.654 124.985 515.03 125.767 515.975C126.57 516.899 126.784 517.936 127.007 517.926C127.221 517.956 127.363 516.635 126.367 515.466C125.391 514.298 124.05 514.217 124.05 514.43Z" fill="#263238"/>
<path d="M121.346 520.283C121.549 520.334 121.854 519.196 121.265 517.956C120.675 516.716 119.608 516.239 119.507 516.432C119.385 516.615 120.076 517.275 120.543 518.302C121.041 519.308 121.123 520.263 121.346 520.283Z" fill="#263238"/>
<path d="M129.254 506.9C129.355 507.103 130.392 506.778 131.673 506.859C132.953 506.91 133.959 507.327 134.071 507.134C134.203 506.971 133.217 506.138 131.703 506.077C130.189 505.986 129.132 506.717 129.254 506.9Z" fill="#263238"/>
<path opacity="0.3" d="M128.766 493.436L128.959 497.694L151.766 497.257L151.756 493.416L128.766 493.436Z" fill="black"/>
<path d="M129.111 502.073C129.111 502.165 130.006 502.297 131.439 502.033C132.15 501.901 132.984 501.657 133.858 501.26C134.295 501.057 134.742 500.823 135.189 500.539C135.403 500.397 135.657 500.254 135.88 499.99C136.124 499.746 136.267 499.147 135.972 498.781C135.728 498.425 135.311 498.273 134.976 498.273C134.63 498.263 134.356 498.334 134.102 498.405C133.583 498.537 133.106 498.71 132.658 498.913C131.774 499.33 131.063 499.848 130.534 500.346C129.467 501.352 129.111 502.205 129.182 502.246C129.284 502.317 129.802 501.606 130.89 500.773C131.429 500.356 132.13 499.929 132.953 499.584C133.37 499.411 133.817 499.269 134.285 499.157C134.773 499.025 135.189 499.015 135.321 499.228C135.372 499.309 135.372 499.34 135.271 499.492C135.169 499.624 134.966 499.756 134.762 499.899C134.356 500.173 133.939 500.407 133.543 500.61C132.74 501.016 131.967 501.301 131.307 501.494C129.985 501.88 129.111 501.951 129.111 502.073Z" fill="#263238"/>
<path d="M129.416 502.398C129.498 502.429 129.935 501.616 130.006 500.153C130.036 499.421 129.955 498.547 129.66 497.612C129.508 497.145 129.315 496.677 129.05 496.21C128.776 495.753 128.441 495.143 127.556 495.051C127.099 495.041 126.723 495.397 126.591 495.712C126.438 496.027 126.418 496.301 126.357 496.566C126.276 497.104 126.296 497.643 126.367 498.13C126.52 499.116 126.936 499.929 127.383 500.518C128.298 501.707 129.254 501.972 129.274 501.9C129.345 501.789 128.552 501.352 127.851 500.203C127.505 499.634 127.19 498.893 127.089 498.029C127.038 497.602 127.038 497.145 127.119 496.688C127.19 496.19 127.363 495.793 127.556 495.844C127.79 495.834 128.186 496.21 128.38 496.596C128.623 497.013 128.817 497.429 128.969 497.846C129.264 498.679 129.406 499.482 129.447 500.163C129.518 501.514 129.294 502.358 129.416 502.398Z" fill="#263238"/>
<path d="M173.507 474.2L192.27 489.036C192.27 489.036 183.488 513.089 186.69 516.168L216.764 480.825L188.478 456.518L173.507 474.2Z" fill="#E8505B"/>
<g opacity="0.6">
<path opacity="0.6" d="M200.045 476.801C200.817 476.273 201.986 476.456 202.545 477.207C203.104 477.949 202.931 479.148 202.169 479.687C201.407 480.226 199.994 480.053 199.527 479.25C199.059 478.447 199.344 477.055 200.207 476.72" fill="white"/>
</g>
<path opacity="0.6" d="M216.775 480.815L213.949 478.386L186.09 513.231C186.09 513.231 185.439 515.385 186.7 516.147L216.775 480.815Z" fill="white"/>
<path d="M191.609 489.452C191.782 489.595 192.595 488.802 193.875 488.416C195.146 488.009 196.264 488.203 196.335 487.989C196.437 487.806 195.187 487.176 193.652 487.664C192.097 488.142 191.416 489.361 191.609 489.452Z" fill="#263238"/>
<path d="M189.993 494.462C190.125 494.645 191.06 494.147 192.29 494.178C193.52 494.178 194.434 494.696 194.577 494.523C194.739 494.381 193.835 493.405 192.3 493.395C190.765 493.365 189.83 494.32 189.993 494.462Z" fill="#263238"/>
<path d="M192.635 500.346C192.808 500.224 192.148 499.248 190.826 498.882C189.505 498.517 188.438 499.004 188.519 499.208C188.58 499.421 189.535 499.33 190.613 499.645C191.7 499.929 192.473 500.498 192.635 500.346Z" fill="#263238"/>
<path d="M187.706 485.601C187.93 485.662 188.356 484.666 189.261 483.752C190.135 482.817 191.111 482.329 191.04 482.116C190.999 481.912 189.729 482.105 188.692 483.203C187.635 484.29 187.503 485.571 187.706 485.601Z" fill="#263238"/>
<path opacity="0.3" d="M177.227 477.136L180.571 479.779L195.197 462.28L192.29 459.77L177.227 477.136Z" fill="black"/>
<path d="M183.976 482.532C184.047 482.593 184.728 482.004 185.47 480.754C185.836 480.134 186.202 479.342 186.476 478.417C186.608 477.96 186.72 477.462 186.801 476.943C186.832 476.689 186.893 476.405 186.842 476.059C186.822 475.714 186.456 475.216 185.988 475.196C185.561 475.145 185.175 475.368 184.952 475.612C184.718 475.866 184.596 476.12 184.474 476.354C184.23 476.832 184.047 477.309 183.915 477.777C183.651 478.711 183.569 479.596 183.6 480.317C183.661 481.78 184.067 482.614 184.149 482.583C184.271 482.553 184.067 481.699 184.159 480.327C184.199 479.646 184.332 478.844 184.616 477.99C184.758 477.563 184.941 477.136 185.165 476.71C185.389 476.252 185.653 475.927 185.907 475.978C185.998 475.998 186.029 476.019 186.07 476.181C186.1 476.344 186.07 476.588 186.039 476.832C185.978 477.319 185.887 477.787 185.775 478.224C185.561 479.098 185.267 479.87 184.972 480.49C184.403 481.75 183.884 482.461 183.976 482.532Z" fill="#263238"/>
<path d="M184.413 482.522C184.494 482.481 184.169 481.618 183.102 480.602C182.573 480.104 181.852 479.585 180.957 479.199C180.51 479.006 180.022 478.844 179.504 478.732C178.975 478.64 178.294 478.498 177.654 479.098C177.339 479.433 177.369 479.961 177.522 480.256C177.664 480.581 177.847 480.774 178.02 480.988C178.376 481.404 178.792 481.74 179.209 482.004C180.053 482.532 180.947 482.756 181.679 482.807C183.183 482.898 184.006 482.349 183.956 482.288C183.915 482.156 183.071 482.471 181.74 482.258C181.089 482.146 180.317 481.892 179.595 481.404C179.24 481.16 178.894 480.856 178.599 480.5C178.274 480.124 178.091 479.728 178.243 479.616C178.386 479.433 178.924 479.382 179.351 479.494C179.819 479.585 180.266 479.717 180.683 479.87C181.506 480.195 182.207 480.612 182.746 481.028C183.823 481.862 184.311 482.593 184.413 482.522Z" fill="#263238"/>
<path d="M121.478 387.632C121.478 387.632 122.718 330.574 121.478 330.574C120.238 330.574 111.436 325.554 111.436 325.554L100.439 410.353C100.439 410.353 99.4533 419.875 111.233 426.582C123.013 433.288 175.702 480.124 175.702 480.124L193.53 458.418C193.53 458.418 158.861 422.294 144.703 410.353C133.624 401.015 121.478 387.632 121.478 387.632Z" fill="#263238"/>
<path d="M153.779 374.34L154.978 365.307C154.978 365.307 163.658 347.046 164.908 339.221C166.148 331.397 165.325 314.579 165.325 314.579H110.491C110.491 314.579 110.725 376.474 117.342 393.831C117.342 393.831 120.706 427.059 121.194 429.844C122.241 435.758 125.9 496.261 125.9 496.261L153.545 495.255C153.545 495.255 155.944 439.629 154.023 423.838C153.078 416.024 152.62 407.691 152.417 400.791C152.163 391.951 152.61 383.11 153.779 374.34Z" fill="#263238"/>
<path d="M111.995 332.626C112.006 332.626 112.016 332.718 112.026 332.901C112.036 333.114 112.056 333.378 112.077 333.704C112.107 334.445 112.158 335.482 112.219 336.783C112.321 339.455 112.524 343.327 112.798 348.103C113.347 357.655 114.374 370.835 115.878 385.356C117.382 399.877 119.008 413.006 120.177 422.497C120.757 427.212 121.224 431.053 121.549 433.746C121.702 435.047 121.814 436.063 121.905 436.804C121.936 437.13 121.966 437.394 121.986 437.607C121.997 437.79 122.007 437.882 121.997 437.882C121.986 437.882 121.966 437.79 121.936 437.617C121.905 437.404 121.854 437.15 121.804 436.825C121.692 436.083 121.539 435.067 121.356 433.776C120.99 431.083 120.462 427.263 119.811 422.548C118.541 413.057 116.864 399.938 115.36 385.406C113.845 370.875 112.88 357.685 112.432 348.123C112.209 343.337 112.067 339.465 112.026 336.793C112.006 335.482 111.995 334.456 111.975 333.714C111.975 333.389 111.975 333.124 111.975 332.911C111.975 332.718 111.985 332.626 111.995 332.626Z" fill="#455A64"/>
<path d="M152.366 405.882C152.386 405.882 152.437 406.187 152.529 406.777C152.62 407.417 152.732 408.27 152.885 409.358C153.159 411.603 153.505 414.865 153.82 418.91C154.47 426.988 154.968 438.176 155.151 450.533C155.293 462.9 155.1 474.098 154.663 482.187C154.46 486.231 154.196 489.503 153.982 491.759C153.86 492.846 153.759 493.71 153.687 494.35C153.616 494.94 153.566 495.255 153.555 495.255C153.535 495.255 153.545 494.94 153.586 494.34C153.637 493.7 153.698 492.836 153.779 491.739C153.931 489.483 154.135 486.211 154.297 482.166C154.643 474.078 154.775 462.89 154.633 450.533C154.45 438.186 154.013 427.009 153.464 418.93C153.2 414.896 152.915 411.624 152.702 409.378C152.59 408.291 152.508 407.427 152.447 406.787C152.366 406.197 152.356 405.882 152.366 405.882Z" fill="#455A64"/>
<path d="M163.15 199.477C163.15 199.477 172.125 201.875 174.036 215.238C175.946 228.611 172.409 232.432 172.409 232.432C172.409 232.432 173.863 207.536 162.713 204.142L163.15 199.965" fill="#263238"/>
<path d="M102.015 243.152L55.6776 242.258L56.2163 244.504L101.781 245.175L102.015 243.152Z" fill="#263238"/>
<path d="M158.18 203.674C156.452 203.217 154.623 203.44 152.986 204.131C149.226 205.717 142.365 210.259 141.877 223.073C141.084 243.772 141.084 243.772 141.084 243.772L170.712 247.644C170.712 247.654 173.222 207.678 158.18 203.674Z" fill="#E8505B"/>
<path d="M103.661 247.542L141.227 258.832L141.786 243.711L164.278 246.983L163.028 271.575C162.764 278.79 157.712 284.937 150.679 286.584C146.746 287.508 142.609 286.909 139.102 284.917L99.1788 262.226L103.661 247.542Z" fill="#8D5524"/>
<path d="M170.712 247.654C170.702 247.644 170.702 247.532 170.681 247.298C170.671 247.044 170.661 246.719 170.641 246.303C170.61 245.398 170.56 244.128 170.509 242.512C170.407 239.21 170.255 234.495 170.072 228.672C169.99 225.756 169.899 222.575 169.797 219.161C169.777 218.307 169.746 217.433 169.726 216.549C169.685 216.112 169.635 215.675 169.594 215.238C169.502 214.801 169.431 214.364 169.32 213.927C168.872 212.179 168.039 210.493 166.87 208.989C164.532 206.032 160.772 203.776 156.615 203.705C154.551 203.654 152.478 204.284 150.669 205.402C148.85 206.509 147.305 208.115 146.075 209.934C144.276 212.555 143.27 215.573 142.69 218.571C142.101 221.579 141.918 224.577 141.776 227.493C141.613 233.326 141.45 238.813 141.308 243.803L141.115 243.579C149.978 244.788 157.347 245.794 162.53 246.506C165.102 246.861 167.124 247.156 168.547 247.349C169.218 247.451 169.757 247.522 170.143 247.583C170.509 247.613 170.702 247.644 170.712 247.654C170.722 247.664 170.539 247.644 170.194 247.613C169.807 247.573 169.289 247.512 168.639 247.43C167.226 247.258 165.213 247.014 162.652 246.709C157.418 246.059 149.988 245.124 141.054 244.006L140.851 243.986V243.782C140.973 238.793 141.064 233.306 141.257 227.463C141.399 224.546 141.582 221.518 142.172 218.47C142.761 215.431 143.788 212.332 145.638 209.639C146.908 207.769 148.494 206.113 150.394 204.954C152.275 203.786 154.46 203.125 156.625 203.186C160.965 203.278 164.837 205.625 167.256 208.694C168.456 210.249 169.32 212.007 169.777 213.815C169.889 214.263 169.96 214.73 170.051 215.177C170.092 215.634 170.143 216.092 170.183 216.539C170.204 217.433 170.224 218.307 170.244 219.181C170.316 222.636 170.377 225.857 170.438 228.794C170.539 234.617 170.62 239.352 170.681 242.654C170.702 244.25 170.722 245.5 170.732 246.394C170.732 246.79 170.732 247.115 170.742 247.359C170.722 247.552 170.712 247.664 170.712 247.654Z" fill="#263238"/>
<path d="M104.413 247.979L95.3877 241.303C93.7412 240.084 91.1799 240.338 89.1369 240.155C85.0917 239.789 78.4242 242.238 78.1701 242.654L80.8941 244.829L63.3513 244.29C63.3513 244.29 64.8555 247.949 69.7646 248.325C69.7646 248.325 70.3338 252.288 75.4259 253.04C75.4259 253.04 76.7472 256.241 79.5728 257.186C79.5728 257.186 80.1419 260.773 84.6648 260.58L100.022 262.317L104.413 247.979Z" fill="#8D5524"/>
<path d="M80.7518 248.985C80.7416 249.128 78.2515 249.107 75.2023 248.924C72.143 248.741 69.6732 248.477 69.6834 248.335C69.6935 248.193 72.1735 248.213 75.243 248.396C78.2922 248.579 80.762 248.843 80.7518 248.985Z" fill="#BB7131"/>
<path d="M85.1832 253.202C85.1832 253.345 83.0081 253.467 80.3249 253.467C77.6416 253.467 75.4666 253.345 75.4666 253.202C75.4666 253.06 77.6416 252.938 80.3249 252.938C83.0081 252.938 85.1832 253.06 85.1832 253.202Z" fill="#BB7131"/>
<path d="M89.9602 257.196C89.9602 257.338 87.7852 257.46 85.1019 257.46C82.4187 257.46 80.2436 257.338 80.2436 257.196C80.2436 257.054 82.4187 256.932 85.1019 256.932C87.7852 256.932 89.9602 257.043 89.9602 257.196Z" fill="#BB7131"/>
<path d="M143.707 266.504C143.575 266.555 142.772 264.929 142.04 262.815C141.308 260.702 140.932 258.923 141.064 258.893C141.206 258.852 141.806 260.549 142.538 262.643C143.259 264.736 143.839 266.443 143.707 266.504Z" fill="#BB7131"/>
<path d="M146.42 265.051C146.298 265.142 145.089 263.669 143.585 261.87C142.091 260.072 140.861 258.608 140.973 258.507C141.074 258.405 142.487 259.716 143.991 261.535C145.506 263.344 146.542 264.959 146.42 265.051Z" fill="#BB7131"/>
</g>
<path d="M11.689 51.8654L90.0827 50.0973C90.0827 50.0973 82.8664 37.639 62.7318 39.9356C43.5018 42.1203 42.3431 34.184 32.5249 33.432C22.7066 32.6801 14.6975 40.3623 11.689 51.8654Z" fill="white"/>
<path d="M378.187 94.2399H452.038C452.038 94.2399 445.502 82.3609 426.496 84.0884C408.343 85.7447 407.418 78.2454 398.19 77.3207C388.961 76.396 381.267 83.4685 378.187 94.2399Z" fill="white"/>
<path d="M56.3286 12.9665H112.667C112.667 12.9665 107.687 3.90225 93.1827 5.22327C79.3294 6.48333 78.6281 0.762273 71.5845 0.0611139C64.541 -0.640045 58.6765 4.75583 56.3286 12.9665Z" fill="white"/>
<path d="M378.258 131.493H415.112C415.112 131.493 411.85 125.569 402.367 126.422C393.311 127.245 392.843 123.506 388.239 123.048C383.635 122.591 379.793 126.117 378.258 131.493Z" fill="white"/>
<path d="M359.831 29.5097H396.685C396.685 29.5097 393.423 23.5854 383.94 24.439C374.884 25.2621 374.416 21.5226 369.812 21.0653C365.208 20.608 361.366 24.1341 359.831 29.5097Z" fill="#FAFAFA"/>
<g style="mix-blend-mode:multiply">
<path d="M282.93 25.5578C288.866 18.6376 304.294 22.9868 314.865 28.6469C314.865 28.6469 322.142 32.0816 324.846 33.8599C324.876 33.8701 324.907 33.8701 324.937 33.8802L349.656 30.7911C351.668 30.537 353.701 30.9028 355.5 31.8174L357.522 32.8539C358.549 33.3721 358.498 34.8557 357.441 35.3029L339.238 43.0766C339.227 43.1782 339.227 43.1985 339.217 43.3001C348.893 49.6614 357.187 55.0979 357.187 55.0979C357.278 55.1589 357.37 55.2198 357.451 55.2707C360.836 57.4351 364.922 58.248 368.896 57.5469L378.521 55.8296C379.009 55.7381 379.517 55.7584 379.974 55.9515C381.682 56.6526 382.017 58.8984 380.615 60.067L369.465 69.3853C367.717 70.8486 365.287 71.1636 363.224 70.2186L358.01 67.8204L331.605 55.2503L334.633 70.2795C334.745 70.8994 334.257 71.4583 333.627 71.438L332.387 71.3973C330.68 71.3363 329.135 70.4015 328.281 68.9179L317.639 48.5944L286.487 33.7583C282.34 31.858 280.856 28.3014 282.93 25.5578Z" fill="#FFBD1A"/>
</g>
<defs>
<clipPath id="clip0_2619_8758">
<rect width="464" height="426" fill="white" transform="translate(0 101)"/>
</clipPath>
</defs>
</svg>
